<svg width="48" height="48" viewBox="0 0 48 48" fill="none" xmlns="http://www.w3.org/2000/svg">
<path d="M35.9998 12.838V10C35.9998 9.46957 35.7891 8.96086 35.414 8.58579C35.039 8.21071 34.5303 8 33.9998 8H15.9998C15.4694 8 14.9607 8.21071 14.5856 8.58579C14.2105 8.96086 13.9998 9.46957 13.9998 10V12.838C12.4138 18.15 10.8938 20.542 10.9758 25C11.0618 29.652 12.7318 31.854 15.8198 40.704C15.9646 41.0841 16.2212 41.4115 16.5557 41.6428C16.8903 41.8742 17.2871 41.9987 17.6938 42H26.1518C26.6252 41.9998 27.0832 41.8316 27.4443 41.5255C27.8054 41.2193 28.0462 40.795 28.1238 40.328L28.9998 35.082L29.9438 40.748C30.0021 41.0982 30.1829 41.4164 30.454 41.6457C30.7251 41.875 31.0688 42.0006 31.4238 42H32.6538C32.9583 41.9992 33.2552 41.9058 33.5053 41.7322C33.7554 41.5585 33.9467 41.3129 34.0538 41.028C37.2038 32.028 38.9358 29.688 39.0218 25.002C39.1058 20.532 37.5718 18.102 35.9998 12.838ZM33.9998 10V12H15.9998V10H33.9998ZM32.3058 40H31.8458L29.9858 28.836C29.9464 28.603 29.8258 28.3915 29.6453 28.239C29.4648 28.0864 29.2361 28.0027 28.9998 28.0027C28.7635 28.0027 28.5349 28.0864 28.3544 28.239C28.1739 28.3915 28.0532 28.603 28.0138 28.836L26.1518 40H17.6918C14.5278 31 13.0618 29.126 12.9758 25C12.8938 21.04 14.2338 18.97 15.7218 14H34.2778C35.7578 18.94 37.0978 21.03 37.0238 24.964C36.9478 29.122 35.4598 31.024 32.3058 40Z" fill="#CDCFD1"/>
</svg>
