<svg width="48" height="68" viewBox="0 0 48 68" fill="none" xmlns="http://www.w3.org/2000/svg">
<path d="M7.09735e-05 53.1719C0.124564 57.6217 1.38444 61.9659 3.66006 65.7918C3.99258 66.4554 4.50317 67.0134 5.13471 67.4033C5.76625 67.7933 6.49383 67.9998 7.23605 67.9998H24.436C25.3289 68.0005 26.1964 67.7023 26.9003 67.1529C27.6041 66.6034 28.1039 65.8342 28.32 64.9678L30 58.2479L31.68 64.9678C31.8961 65.8342 32.3959 66.6034 33.0997 67.1529C33.8036 67.7023 34.6711 68.0005 35.564 67.9998H40.764C41.5077 67.9998 42.2367 67.7924 42.8691 67.401C43.5015 67.0095 44.0123 66.4495 44.344 65.7838C46.6208 61.9615 47.8796 57.6193 48 53.1719C48 41.4039 40 37.7239 40 33.2119C40 27.6119 48 26.6559 48 18.788C48 10.272 40 11.136 40 5.84399V3.99999C40 2.93913 39.5786 1.92171 38.8284 1.17157C38.0783 0.421427 37.0608 0 36 0H32C30.9391 0 29.9217 0.421427 29.1716 1.17157C28.4214 1.92171 28 2.93913 28 3.99999V6.39998C28.0007 7.17961 27.8086 7.94731 27.4408 8.63473C27.0731 9.32215 26.541 9.90795 25.892 10.34C25.1817 10.8128 24.5443 11.3869 24 12.044C23.4557 11.3869 22.8183 10.8128 22.108 10.34C21.459 9.90795 20.927 9.32215 20.5592 8.63473C20.1914 7.94731 19.9993 7.17961 20 6.39998V3.99999C20 2.93913 19.5786 1.92171 18.8285 1.17157C18.0783 0.421427 17.0609 0 16 0H12C10.9392 0 9.92177 0.421427 9.17162 1.17157C8.42148 1.92171 8.00005 2.93913 8.00005 3.99999V5.84399C8.00272 6.72178 7.75992 7.58285 7.29908 8.32995C6.83823 9.07705 6.1777 9.68044 5.39206 10.072C3.7673 10.8773 2.40084 12.122 1.44775 13.6648C0.494669 15.2075 -0.0068648 16.9866 7.09735e-05 18.8C7.09735e-05 26.5759 8.00005 27.7039 8.00005 33.2919C8.00005 37.5639 7.09735e-05 41.4959 7.09735e-05 53.1719ZM4.00006 18.772C4.00006 12.476 12 14.148 12 5.82798V3.99999H16V6.39998C15.9979 7.83867 16.3522 9.25547 17.0314 10.5238C17.7106 11.792 18.6934 12.8723 19.892 13.668C20.5399 14.0992 21.0712 14.6838 21.439 15.3697C21.8067 16.0556 21.9994 16.8217 22 17.6C22 18.1304 22.2107 18.6391 22.5858 19.0142C22.9609 19.3892 23.4696 19.5999 24 19.5999C24.5304 19.5999 25.0392 19.3892 25.4142 19.0142C25.7893 18.6391 26 18.1304 26 17.6C25.9993 16.8203 26.1914 16.0526 26.5592 15.3652C26.927 14.6778 27.459 14.092 28.108 13.66C29.3055 12.865 30.2876 11.7861 30.9667 10.5193C31.6458 9.2525 32.0008 7.83731 32 6.39998V3.99999H36V5.84399C36 14.244 44 12.436 44 18.788C44 24.4359 36 25.3399 36 33.2799C36 40.2999 44 42.1639 44 53.1719C43.8632 56.9977 42.7507 60.725 40.768 63.9998H35.568L31.944 49.5159C31.7942 49.1227 31.5285 48.7843 31.182 48.5455C30.8356 48.3068 30.4248 48.1789 30.004 48.1789C29.5832 48.1789 29.1724 48.3068 28.826 48.5455C28.4795 48.7843 28.2138 49.1227 28.064 49.5159L24.436 63.9998H7.23605C5.25278 60.725 4.1389 56.9979 4.00006 53.1719C4.00006 42.2759 12 40.3359 12 33.2119C12 25.2759 4.00006 24.4999 4.00006 18.8V18.772Z" fill="#393D46"/>
</svg>
