<svg width="48" height="48" viewBox="0 0 48 48" fill="none" xmlns="http://www.w3.org/2000/svg">
<path d="M38.0002 8.922C37.9773 8.65769 37.8514 8.41297 37.6498 8.24052C37.4482 8.06808 37.1869 7.9817 36.9222 8C36.7908 8.00986 36.6626 8.0456 36.545 8.1052C36.4274 8.16479 36.3227 8.24704 36.237 8.34723C36.1513 8.44742 36.0863 8.56356 36.0457 8.68897C36.005 8.81439 35.9896 8.9466 36.0002 9.078L37.1742 24.052C34.5078 24.2523 31.9517 25.1996 29.7986 26.7853C27.6455 28.371 25.9826 30.531 25.0002 33.018C24.0176 30.5304 22.354 28.37 20.2002 26.7843C18.0464 25.1985 15.4894 24.2516 12.8222 24.052L14.0002 9.078C14.0209 8.81279 13.9354 8.55021 13.7625 8.34805C13.5896 8.14589 13.3435 8.02069 13.0782 8C12.813 7.97932 12.5504 8.06483 12.3483 8.23774C12.1461 8.41065 12.0209 8.65679 12.0002 8.922L10.7702 24.616C8.97865 26.5437 7.99033 29.0825 8.00704 31.7141C8.02376 34.3457 9.04425 36.8717 10.8602 38.7765C12.6761 40.6812 15.1506 41.8211 17.7784 41.9634C20.4062 42.1056 22.9893 41.2396 25.0002 39.542C27.0112 41.2384 29.5938 42.1035 32.2209 41.9606C34.8479 41.8176 37.3214 40.6775 39.1365 38.7729C40.9515 36.8682 41.9712 34.3427 41.9876 31.7118C42.0039 29.0809 41.0155 26.543 39.2242 24.616L38.0002 8.922ZM12.4522 37.548C10.9302 36.0283 10.0517 33.981 9.9988 31.8308C9.94592 29.6807 10.7228 27.5927 12.1682 26C15.2747 26.1005 18.2265 27.3796 20.424 29.5776C22.6216 31.7755 23.9002 34.7275 24.0002 37.834C22.4073 39.2792 20.3192 40.0557 18.169 40.0025C16.0188 39.9492 13.9717 39.0703 12.4522 37.548ZM37.5462 37.548C36.0257 39.0654 33.9805 39.941 31.8329 39.9938C29.6854 40.0467 27.5996 39.2728 26.0062 37.832C26.1067 34.7269 27.3847 31.7762 29.5809 29.5789C31.7772 27.3815 34.7271 26.102 37.8322 26C39.2779 27.5927 40.0547 29.681 40.0015 31.8313C39.9482 33.9816 39.069 36.0288 37.5462 37.548Z" fill="#CDCFD1"/>
</svg>
