<svg width="48" height="48" viewBox="0 0 48 48" fill="none" xmlns="http://www.w3.org/2000/svg">
<path d="M10.5003 24.1999C10.5003 23.7892 10.6583 23.3954 10.9396 23.105C11.2209 22.8146 11.6025 22.6515 12.0003 22.6515L32.3853 22.6515L30.4353 20.6541C30.1528 20.3625 29.9941 19.9671 29.9941 19.5547C29.9941 19.1424 30.1528 18.7469 30.4353 18.4554C30.7177 18.1638 31.1008 18 31.5003 18C31.8997 18 32.2828 18.1638 32.5653 18.4554L37.0653 23.1005C37.2734 23.3183 37.4144 23.5948 37.4705 23.8951C37.5265 24.1955 37.4951 24.5063 37.3803 24.7883C37.2677 25.071 37.0767 25.3131 36.8311 25.4839C36.5855 25.6548 36.2964 25.7467 36.0003 25.7483L12.0003 25.7483C11.6025 25.7483 11.2209 25.5851 10.9396 25.2948C10.6583 25.0044 10.5003 24.6105 10.5003 24.1999Z" fill="white"/>
<path d="M29.9997 28.845C29.9986 28.6412 30.0364 28.4392 30.1111 28.2506C30.1857 28.0619 30.2957 27.8903 30.4347 27.7457L34.9347 23.1005C35.2172 22.8089 35.6003 22.6451 35.9997 22.6451C36.1975 22.6451 36.3934 22.6854 36.5761 22.7635C36.7588 22.8416 36.9249 22.9561 37.0647 23.1005C37.2046 23.2449 37.3155 23.4163 37.3912 23.6049C37.4669 23.7935 37.5059 23.9957 37.5059 24.1999C37.5059 24.6122 37.3472 25.0077 37.0647 25.2992L32.5647 29.9444C32.4253 30.0895 32.2594 30.2047 32.0766 30.2833C31.8938 30.3619 31.6977 30.4024 31.4997 30.4024C31.3017 30.4024 31.1056 30.3619 30.9229 30.2833C30.7401 30.2047 30.5742 30.0895 30.4347 29.9444C30.2957 29.7997 30.1857 29.6281 30.1111 29.4395C30.0364 29.2508 29.9986 29.0488 29.9997 28.845Z" fill="white"/>
</svg>
