<svg width="48" height="48" viewBox="0 0 48 48" fill="none" xmlns="http://www.w3.org/2000/svg">
<path d="M24 10C14.466 10 7 14.4 7 20V28C7 32.566 12.186 36.512 19.638 37.658C20.058 37.8795 20.5251 37.9968 21 38H27C27.4749 37.9968 27.942 37.8795 28.362 37.658C35.814 36.512 41 32.566 41 28V20C41 14.4 33.534 10 24 10ZM9 28V24.776C11.5803 27.2841 14.8803 28.9225 18.438 29.462C18.1541 29.925 18.0026 30.4569 18 31V35C18 35.104 18.02 35.2 18.03 35.304C12.692 34.032 9 31.136 9 28ZM28 35C27.9896 35.2619 27.881 35.5103 27.6956 35.6956C27.5103 35.881 27.2619 35.9896 27 36H25V34H26C26.2652 34 26.5196 33.8946 26.7071 33.7071C26.8946 33.5196 27 33.2652 27 33C27 32.7348 26.8946 32.4804 26.7071 32.2929C26.5196 32.1054 26.2652 32 26 32H25V30H27C27.2652 30 27.5196 30.1054 27.7071 30.2929C27.8946 30.4804 28 30.7348 28 31V35ZM20 35V31C20 30.7348 20.1054 30.4804 20.2929 30.2929C20.4804 30.1054 20.7348 30 21 30H23V32C22.7348 32 22.4804 32.1054 22.2929 32.2929C22.1054 32.4804 22 32.7348 22 33C22 33.2652 22.1054 33.5196 22.2929 33.7071C22.4804 33.8946 22.7348 34 23 34V36H21C20.7378 35.9906 20.4889 35.8822 20.3034 35.6966C20.1178 35.5111 20.0094 35.2622 20 35ZM29.768 26.23C29.968 23.808 27.428 22.336 25 22.056V20.056C29.702 20.466 32.876 23.648 29.768 26.23ZM20 26C20 25.056 21.71 24 24 24C26.176 24 27.8 25.056 27.8 26C27.8 26.944 26.176 28 24 28C22.372 28 20 27.242 20 26ZM23 22.066C20.132 22.376 18 23.984 18 25.996C15.2 23.296 18.694 20.432 23 20.06V22.066ZM32.616 25.666C32.8553 25.1423 32.986 24.5756 33 24C33 20.634 29.046 18 24 18C18.954 18 15 20.634 15 24C15.0132 24.5776 15.1439 25.1465 15.384 25.672C14.7185 25.2993 14.1537 24.7703 13.7383 24.1305C13.323 23.4908 13.0696 22.7596 13 22C13 18.748 18.038 16 24 16C29.962 16 35 18.748 35 22C34.9304 22.7596 34.677 23.4908 34.2617 24.1305C33.8463 24.7703 33.2815 25.2993 32.616 25.672V25.666ZM39 28C39 31.136 35.308 34.032 29.97 35.304C29.98 35.202 30 35.104 30 35V31C29.9974 30.4569 29.8459 29.925 29.562 29.462C33.1197 28.9225 36.4197 27.2841 39 24.776V28ZM36.414 24.422C36.7962 23.6717 36.9969 22.8421 37 22C37 17.514 31.29 14 24 14C16.71 14 11 17.514 11 22C11.0033 22.842 11.204 23.6716 11.586 24.422C10.8458 23.9315 10.2278 23.2778 9.77954 22.5113C9.33126 21.7447 9.06459 20.8857 9 20C9 15.664 15.87 12 24 12C32.13 12 39 15.664 39 20C38.9354 20.8857 38.6687 21.7447 38.2205 22.5113C37.7722 23.2778 37.1542 23.9315 36.414 24.422Z" fill="#CDCFD1"/>
</svg>
