<svg width="48" height="48" viewBox="0 0 48 48" fill="none" xmlns="http://www.w3.org/2000/svg">
<path d="M12 33.586C12.0623 35.8109 12.6922 37.983 13.83 39.896C13.9963 40.2278 14.2516 40.5068 14.5674 40.7017C14.8831 40.8967 15.2469 41 15.618 41H24.218C24.6645 41.0003 25.0982 40.8512 25.4502 40.5765C25.8021 40.3018 26.052 39.9172 26.16 39.484L27 36.124L27.84 39.484C27.9481 39.9172 28.198 40.3018 28.5499 40.5765C28.9018 40.8512 29.3356 41.0003 29.782 41H32.382C32.7539 41 33.1184 40.8963 33.4346 40.7006C33.7508 40.5048 34.0062 40.2248 34.172 39.892C35.3105 37.9808 35.9398 35.8097 36 33.586C36 27.702 32 25.862 32 23.606C32 20.806 36 20.328 36 16.394C36 12.136 32 12.568 32 9.922V9C32 8.46957 31.7893 7.96086 31.4143 7.58579C31.0392 7.21071 30.5305 7 30 7H28C27.4696 7 26.9609 7.21071 26.5858 7.58579C26.2107 7.96086 26 8.46957 26 9V10.2C26.0004 10.5898 25.9043 10.9737 25.7205 11.3174C25.5366 11.6611 25.2705 11.954 24.946 12.17C24.5909 12.4064 24.2722 12.6934 24 13.022C23.7279 12.6934 23.4092 12.4064 23.054 12.17C22.7295 11.954 22.4635 11.6611 22.2796 11.3174C22.0957 10.9737 21.9997 10.5898 22 10.2V9C22 8.46957 21.7893 7.96086 21.4142 7.58579C21.0392 7.21071 20.5305 7 20 7H18C17.4696 7 16.9609 7.21071 16.5858 7.58579C16.2107 7.96086 16 8.46957 16 9V9.922C16.0014 10.3609 15.88 10.7914 15.6495 11.165C15.4191 11.5385 15.0889 11.8402 14.696 12.036C13.8837 12.4387 13.2004 13.061 12.7239 13.8324C12.2473 14.6038 11.9966 15.4933 12 16.4C12 20.288 16 20.852 16 23.646C16 25.782 12 27.748 12 33.586ZM14 16.386C14 13.238 18 14.074 18 9.914V9H20V10.2C19.999 10.9193 20.1761 11.6277 20.5157 12.2619C20.8553 12.896 21.3467 13.4362 21.946 13.834C22.27 14.0496 22.5356 14.3419 22.7195 14.6849C22.9034 15.0278 22.9997 15.4109 23 15.8C23 16.0652 23.1054 16.3196 23.2929 16.5071C23.4805 16.6946 23.7348 16.8 24 16.8C24.2653 16.8 24.5196 16.6946 24.7071 16.5071C24.8947 16.3196 25 16.0652 25 15.8C24.9997 15.4102 25.0957 15.0263 25.2796 14.6826C25.4635 14.3389 25.7295 14.046 26.054 13.83C26.6528 13.4325 27.1438 12.893 27.4834 12.2597C27.823 11.6263 28.0004 10.9187 28 10.2V9H30V9.922C30 14.122 34 13.218 34 16.394C34 19.218 30 19.67 30 23.64C30 27.15 34 28.082 34 33.586C33.9317 35.4989 33.3754 37.3626 32.384 39H29.784L27.972 31.758C27.8971 31.5614 27.7643 31.3922 27.5911 31.2728C27.4178 31.1534 27.2124 31.0895 27.002 31.0895C26.7917 31.0895 26.5862 31.1534 26.413 31.2728C26.2398 31.3922 26.1069 31.5614 26.032 31.758L24.218 39H15.618C14.6264 37.3626 14.0695 35.499 14 33.586C14 28.138 18 27.168 18 23.606C18 19.638 14 19.25 14 16.4V16.386Z" fill="#CDCFD1"/>
</svg>
