<svg width="48" height="48" viewBox="0 0 48 48" fill="none" xmlns="http://www.w3.org/2000/svg">
<path d="M39 28.5C36.5186 28.5 34.5 26.4815 34.5 24C34.5 21.5185 36.5186 19.5 39 19.5C41.4814 19.5 43.5 21.5185 43.5 24C43.5 26.4815 41.4814 28.5 39 28.5ZM39 22.5C38.1723 22.5 37.5 23.1723 37.5 24C37.5 24.8277 38.1723 25.5 39 25.5C39.8277 25.5 40.5 24.8277 40.5 24C40.5 23.1723 39.8277 22.5 39 22.5ZM24 28.5C21.5186 28.5 19.5 26.4815 19.5 24C19.5 21.5185 21.5186 19.5 24 19.5C26.4814 19.5 28.5 21.5185 28.5 24C28.5 26.4815 26.4814 28.5 24 28.5ZM24 22.5C23.1723 22.5 22.5 23.1723 22.5 24C22.5 24.8277 23.1723 25.5 24 25.5C24.8277 25.5 25.5 24.8277 25.5 24C25.5 23.1723 24.8277 22.5 24 22.5ZM9 28.5C6.51855 28.5 4.5 26.4815 4.5 24C4.5 21.5185 6.51855 19.5 9 19.5C11.4815 19.5 13.5 21.5185 13.5 24C13.5 26.4815 11.4815 28.5 9 28.5ZM9 22.5C8.1723 22.5 7.5 23.1723 7.5 24C7.5 24.8277 8.1723 25.5 9 25.5C9.8277 25.5 10.5 24.8277 10.5 24C10.5 23.1723 9.8277 22.5 9 22.5Z" fill="#CDCFD1"/>
</svg>
