<svg width="24" height="24" viewBox="0 0 24 24" fill="none" xmlns="http://www.w3.org/2000/svg">
<path d="M11.9997 15C11.8681 15.0008 11.7376 14.9755 11.6158 14.9258C11.494 14.876 11.3831 14.8027 11.2897 14.71L7.2897 10.71C7.10139 10.5217 6.99561 10.2663 6.99561 9.99999C6.99561 9.73369 7.10139 9.4783 7.2897 9.28999C7.478 9.10169 7.7334 8.9959 7.9997 8.9959C8.266 8.9959 8.52139 9.10169 8.7097 9.28999L11.9997 12.59L15.2897 9.29999C15.481 9.13617 15.7271 9.05056 15.9788 9.06028C16.2304 9.07 16.4692 9.17434 16.6473 9.35243C16.8254 9.53053 16.9297 9.76926 16.9394 10.0209C16.9491 10.2726 16.8635 10.5187 16.6997 10.71L12.6997 14.71C12.5134 14.8947 12.262 14.9989 11.9997 15Z" fill="#393D46"/>
</svg>
