<svg width="44" height="69" viewBox="0 0 44 69" fill="none" xmlns="http://www.w3.org/2000/svg">
<path d="M36.1977 7.45131e-06H7.80257C6.77771 -0.00196412 5.79075 0.387379 5.04326 1.08852C4.29577 1.78967 3.84414 2.74972 3.7806 3.77262L0.00799032 64.1022C-0.0266727 64.6513 0.0516921 65.2016 0.238237 65.7192C0.424781 66.2368 0.715538 66.7107 1.09252 67.1114C1.46951 67.5121 1.92471 67.8313 2.42996 68.049C2.93521 68.2668 3.47977 68.3786 4.02996 68.3775H12.2549C13.2069 68.3771 14.1279 68.039 14.8541 67.4233C15.5802 66.8076 16.0644 65.9543 16.2206 65.0152L22.0001 30.3337L27.7797 65.0152C27.9367 65.9536 28.4213 66.8059 29.1473 67.4208C29.8734 68.0357 30.7939 68.3732 31.7454 68.3735H39.9703C40.5201 68.3746 41.0643 68.2629 41.5693 68.0453C42.0743 67.8278 42.5293 67.509 42.9062 67.1087C43.2831 66.7085 43.574 66.2351 43.7608 65.718C43.9476 65.2009 44.0264 64.6509 43.9923 64.1022L40.2197 3.77262C40.1561 2.74972 39.7045 1.78967 38.957 1.08852C38.2095 0.387379 37.2225 -0.00196412 36.1977 7.45131e-06ZM36.1977 4.02198L36.6401 11.1047C35.2721 10.4948 34.1107 9.5009 33.2967 8.2436C32.4828 6.9863 32.0514 5.51973 32.0551 4.02198H36.1977ZM11.9452 4.02198C11.9483 5.51962 11.5167 6.98598 10.7029 8.24318C9.88901 9.50038 8.72782 10.4944 7.36015 11.1047L7.80257 4.02198H11.9452ZM31.7454 64.3515L23.983 17.7691C23.9037 17.3005 23.6611 16.8752 23.2981 16.5684C22.9352 16.2617 22.4753 16.0934 22.0001 16.0934C21.5249 16.0934 21.0651 16.2617 20.7021 16.5684C20.3391 16.8752 20.0965 17.3005 20.0173 17.7691L12.2549 64.3515H4.02996L7.07057 15.746C9.56607 14.9223 11.7527 13.3604 13.3413 11.2669C14.9299 9.17347 15.8455 6.64711 15.9672 4.02198H19.9891V10.0549C19.9891 10.5883 20.201 11.0998 20.5781 11.4769C20.9553 11.854 21.4668 12.0659 22.0001 12.0659C22.5335 12.0659 23.045 11.854 23.4221 11.4769C23.7992 11.0998 24.0111 10.5883 24.0111 10.0549V4.02198H28.0331C28.1547 6.64711 29.0704 9.17347 30.659 11.2669C32.2475 13.3604 34.4342 14.9223 36.9297 15.746L39.9703 64.3515H31.7454Z" fill="#393D46"/>
</svg>
