<svg width="168" height="24" viewBox="0 0 168 24" fill="none" xmlns="http://www.w3.org/2000/svg">
<g clip-path="url(#clip0_649_407)">
<path d="M20.71 19.29L17.31 15.9C18.407 14.5025 19.0022 12.7767 19 11C19 9.41775 18.5308 7.87103 17.6518 6.55544C16.7727 5.23985 15.5233 4.21447 14.0615 3.60897C12.5997 3.00347 10.9911 2.84504 9.43928 3.15372C7.88743 3.4624 6.46197 4.22433 5.34315 5.34315C4.22433 6.46197 3.4624 7.88743 3.15372 9.43928C2.84504 10.9911 3.00347 12.5997 3.60897 14.0615C4.21447 15.5233 5.23985 16.7727 6.55544 17.6518C7.87103 18.5308 9.41775 19 11 19C12.7767 19.0022 14.5025 18.407 15.9 17.31L19.29 20.71C19.383 20.8037 19.4936 20.8781 19.6154 20.9289C19.7373 20.9797 19.868 21.0058 20 21.0058C20.132 21.0058 20.2627 20.9797 20.3846 20.9289C20.5064 20.8781 20.617 20.8037 20.71 20.71C20.8037 20.617 20.8781 20.5064 20.9289 20.3846C20.9797 20.2627 21.0058 20.132 21.0058 20C21.0058 19.868 20.9797 19.7373 20.9289 19.6154C20.8781 19.4936 20.8037 19.383 20.71 19.29ZM5 11C5 9.81332 5.3519 8.65328 6.01119 7.66658C6.67047 6.67989 7.60755 5.91085 8.7039 5.45673C9.80026 5.0026 11.0067 4.88378 12.1705 5.11529C13.3344 5.3468 14.4035 5.91825 15.2426 6.75736C16.0818 7.59648 16.6532 8.66558 16.8847 9.82946C17.1162 10.9933 16.9974 12.1997 16.5433 13.2961C16.0892 14.3925 15.3201 15.3295 14.3334 15.9888C13.3467 16.6481 12.1867 17 11 17C9.4087 17 7.88258 16.3679 6.75736 15.2426C5.63214 14.1174 5 12.5913 5 11Z" fill="#393D46"/>
</g>
<path d="M80.5 19C80.2033 19 79.9133 19.088 79.6666 19.2528C79.42 19.4176 79.2277 19.6519 79.1142 19.926C79.0006 20.2001 78.9709 20.5017 79.0288 20.7926C79.0867 21.0836 79.2296 21.3509 79.4393 21.5607C79.6491 21.7704 79.9164 21.9133 80.2074 21.9712C80.4983 22.0291 80.7999 21.9993 81.074 21.8858C81.3481 21.7723 81.5824 21.58 81.7472 21.3334C81.912 21.0867 82 20.7967 82 20.5C82 20.1022 81.842 19.7206 81.5607 19.4393C81.2794 19.158 80.8978 19 80.5 19ZM91 16H79C78.7348 16 78.4804 15.8946 78.2929 15.7071C78.1054 15.5196 78 15.2652 78 15C78 14.7348 78.1054 14.4804 78.2929 14.2929C78.4804 14.1054 78.7348 14 79 14H87.4912C88.1426 13.9979 88.7758 13.7847 89.2959 13.3925C89.816 13.0002 90.195 12.45 90.376 11.8242L91.9614 6.2749C92.004 6.12607 92.0114 5.9694 91.9831 5.81722C91.9548 5.66505 91.8915 5.52152 91.7983 5.39793C91.7051 5.27435 91.5845 5.17408 91.446 5.10503C91.3075 5.03598 91.1548 5.00003 91 5H78.7391C78.5321 4.41736 78.1504 3.91271 77.6462 3.55481C77.142 3.19692 76.5397 3.00318 75.9214 3H75C74.7348 3 74.4804 3.10536 74.2929 3.29289C74.1054 3.48043 74 3.73478 74 4C74 4.26522 74.1054 4.51957 74.2929 4.70711C74.4804 4.89464 74.7348 5 75 5H75.9214C76.1385 5.00076 76.3495 5.07182 76.5228 5.20253C76.6961 5.33325 76.8224 5.51659 76.8828 5.7251L77.0383 6.26984L77.0386 6.2749L78.6792 12.0171C77.9158 12.0992 77.2129 12.4709 76.7153 13.0557C76.2177 13.6405 75.9632 14.3938 76.0043 15.1606C76.0454 15.9273 76.379 16.6491 76.9363 17.1773C77.4935 17.7055 78.2322 18 79 18H91C91.2652 18 91.5196 17.8946 91.7071 17.7071C91.8946 17.5196 92 17.2652 92 17C92 16.7348 91.8946 16.4804 91.7071 16.2929C91.5196 16.1054 91.2652 16 91 16ZM89.6743 7L88.4531 11.2744C88.3928 11.4831 88.2664 11.6666 88.093 11.7974C87.9196 11.9282 87.7084 11.9993 87.4912 12H80.7544L80.4994 11.1078L79.3264 7H89.6743ZM88.5 19C88.2033 19 87.9133 19.088 87.6666 19.2528C87.42 19.4176 87.2277 19.6519 87.1142 19.926C87.0006 20.2001 86.9709 20.5017 87.0288 20.7926C87.0867 21.0836 87.2296 21.3509 87.4393 21.5607C87.6491 21.7704 87.9164 21.9133 88.2074 21.9712C88.4983 22.0291 88.7999 21.9993 89.074 21.8858C89.3481 21.7723 89.5824 21.58 89.7472 21.3334C89.912 21.0867 90 20.7967 90 20.5C90 20.1022 89.842 19.7206 89.5607 19.4393C89.2794 19.158 88.8978 19 88.5 19Z" fill="#393D46"/>
<path d="M163 4H149C148.204 4 147.441 4.31607 146.879 4.87868C146.316 5.44129 146 6.20435 146 7V17C146 17.7956 146.316 18.5587 146.879 19.1213C147.441 19.6839 148.204 20 149 20H163C163.796 20 164.559 19.6839 165.121 19.1213C165.684 18.5587 166 17.7956 166 17V7C166 6.20435 165.684 5.44129 165.121 4.87868C164.559 4.31607 163.796 4 163 4ZM162.427 6L156.6 10.8C156.433 10.9267 156.231 10.9976 156.022 11.0026C155.813 11.0077 155.607 10.9465 155.435 10.828L149.573 6H162.427ZM163 18H149C148.735 18 148.48 17.8946 148.293 17.7071C148.105 17.5196 148 17.2652 148 17V7.3L154.2 12.4C154.716 12.7863 155.343 12.9944 155.988 12.993C156.655 12.992 157.304 12.774 157.836 12.372L164 7.3V17C164 17.2652 163.895 17.5196 163.707 17.7071C163.52 17.8946 163.265 18 163 18Z" fill="#393D46"/>
<defs>
<clipPath id="clip0_649_407">
<rect width="24" height="24" fill="white"/>
</clipPath>
</defs>
</svg>
