<svg width="68" height="68" viewBox="0 0 68 68" fill="none" xmlns="http://www.w3.org/2000/svg">
<path d="M60.548 14.98C60.2239 14.1701 59.7271 13.4406 59.0922 12.8424C58.4574 12.2441 57.6997 11.7915 56.872 11.516L47.42 8.36402L44.896 3.31603C44.4 2.31725 43.6344 1.47728 42.6857 0.891232C41.7369 0.305182 40.6431 -0.00353798 39.528 3.05905e-05H28.472C27.3569 -0.00353798 26.263 0.305182 25.3143 0.891232C24.3656 1.47728 23.5999 2.31725 23.104 3.31603L20.58 8.36402L11.128 11.516C10.3003 11.7915 9.54261 12.2441 8.90774 12.8424C8.27287 13.4406 7.77609 14.1701 7.45201 14.98L0.716015 31.824C0.240815 33.0052 -0.00228475 34.2668 1.61819e-05 35.54V60C1.61819e-05 61.0608 0.421444 62.0782 1.17159 62.8284C1.92173 63.5785 2.93915 64 4.00001 64H8.00001C9.06087 64 10.0783 63.5785 10.8284 62.8284C11.5786 62.0782 12 61.0608 12 60V54.296L14 47.624V52.112C14.118 54.367 14.8061 56.5553 16 58.472V64C16 65.0608 16.4214 66.0782 17.1716 66.8284C17.9217 67.5785 18.9391 67.9999 20 67.9999H48C49.0608 67.9999 50.0783 67.5785 50.8284 66.8284C51.5785 66.0782 52 65.0608 52 64V58.472C53.194 56.5553 53.8822 54.367 54 52.112V47.624L56 54.296V60C56 61.0608 56.4214 62.0782 57.1715 62.8284C57.9217 63.5785 58.9391 64 60 64H64C65.0608 64 66.0782 63.5785 66.8284 62.8284C67.5785 62.0782 68 61.0608 68 60V35.54C68.0026 34.2681 67.7595 33.0076 67.284 31.828L60.548 14.98ZM55.956 15.52C53.8227 18.7279 51.869 22.0517 50.104 25.476C49.892 26.276 50.072 25.348 50 48C48.4087 48 46.8825 47.3678 45.7573 46.2426C44.6321 45.1174 44 43.5913 44 42C44 41.4695 43.7893 40.9608 43.4142 40.5858C43.0391 40.2107 42.5304 40 42 40C41.4695 40 40.9608 40.2107 40.5858 40.5858C40.2107 40.9608 40 41.4695 40 42C40 44.6521 41.0535 47.1957 42.9289 49.071C44.8043 50.9464 47.3478 52 50 52V52.112C49.9169 53.4904 49.4921 54.8266 48.764 56H36V19.072L46.296 12.208C57.72 16.092 55.16 15.056 55.956 15.52ZM25.6 7.30402L28.076 11.636L24.596 9.31602L25.6 7.30402ZM42.432 7.30402L43.436 9.30402L39.956 11.624L42.432 7.30402ZM39.688 4.04003L34 13.968L28.328 4.04003C29.14 4.00003 38.856 4.00003 39.672 4.04003H39.688ZM21.704 12.208L32 19.072V56H19.236C18.5018 54.8294 18.0765 53.4916 18 52.112V52C20.6522 52 23.1957 50.9464 25.0711 49.071C26.9464 47.1957 28 44.6521 28 42C28 41.4695 27.7893 40.9608 27.4142 40.5858C27.0391 40.2107 26.5304 40 26 40C25.4696 40 24.9609 40.2107 24.5858 40.5858C24.2107 40.9608 24 41.4695 24 42C24 43.5913 23.3679 45.1174 22.2426 46.2426C21.1174 47.3678 19.5913 48 18 48C17.928 25.352 18.108 26.256 17.896 25.476C16.1322 22.051 14.1785 18.7271 12.044 15.52C12.656 15.16 17.624 13.6 21.704 12.208ZM4.00001 60V56H8.00001V60H4.00001ZM13.748 34.552L8.51201 52H4.00001V35.54C3.99969 34.7769 4.14496 34.0207 4.42801 33.312L9.88001 19.688L14 26.552V32.828C14.0003 33.4119 13.9154 33.9926 13.748 34.552ZM20 64V60H48V64H20ZM54 32.828V26.552L58.12 19.688L63.572 33.316C63.8558 34.023 64.0011 34.7781 64 35.54V52H59.488L54.252 34.548C54.0842 33.9901 53.9993 33.4106 54 32.828ZM60 60V56H64V60H60Z" fill="#393D46"/>
</svg>
