<svg width="68" height="56" viewBox="0 0 68 56" fill="none" xmlns="http://www.w3.org/2000/svg">
<path d="M34 0C14.932 0 0 8.8 0 20V36C0 45.132 10.372 53.024 25.276 55.316C26.116 55.7591 27.0503 55.9936 28 56H40C40.9497 55.9936 41.884 55.7591 42.724 55.316C57.628 53.024 68 45.132 68 36V20C68 8.8 53.068 0 34 0ZM4 36V29.552C9.16063 34.5681 15.7606 37.845 22.876 38.924C22.3083 39.85 22.0053 40.9139 22 42V50C22 50.208 22.04 50.4 22.06 50.608C11.384 48.064 4 42.272 4 36ZM42 50C41.9793 50.5238 41.7619 51.0206 41.3912 51.3912C41.0206 51.7619 40.5238 51.9793 40 52H36V48H38C38.5304 48 39.0391 47.7893 39.4142 47.4142C39.7893 47.0391 40 46.5304 40 46C40 45.4696 39.7893 44.9609 39.4142 44.5858C39.0391 44.2107 38.5304 44 38 44H36V40H40C40.5304 40 41.0391 40.2107 41.4142 40.5858C41.7893 40.9609 42 41.4696 42 42V50ZM26 50V42C26 41.4696 26.2107 40.9609 26.5858 40.5858C26.9609 40.2107 27.4696 40 28 40H32V44C31.4696 44 30.9609 44.2107 30.5858 44.5858C30.2107 44.9609 30 45.4696 30 46C30 46.5304 30.2107 47.0391 30.5858 47.4142C30.9609 47.7893 31.4696 48 32 48V52H28C27.4756 51.9811 26.9778 51.7644 26.6067 51.3933C26.2356 51.0222 26.0189 50.5244 26 50ZM45.536 32.46C45.936 27.616 40.856 24.672 36 24.112V20.112C45.404 20.932 51.752 27.296 45.536 32.46ZM26 32C26 30.112 29.42 28 34 28C38.352 28 41.6 30.112 41.6 32C41.6 33.888 38.352 36 34 36C30.744 36 26 34.484 26 32ZM32 24.132C26.264 24.752 22 27.968 22 31.992C16.4 26.592 23.388 20.864 32 20.12V24.132ZM51.232 31.332C51.7106 30.2847 51.9719 29.1512 52 28C52 21.268 44.092 16 34 16C23.908 16 16 21.268 16 28C16.0265 29.1552 16.2878 30.293 16.768 31.344C15.437 30.5986 14.3074 29.5406 13.4767 28.2611C12.646 26.9816 12.1392 25.5191 12 24C12 17.496 22.076 12 34 12C45.924 12 56 17.496 56 24C55.8608 25.5191 55.354 26.9816 54.5233 28.2611C53.6926 29.5406 52.563 30.5986 51.232 31.344V31.332ZM64 36C64 42.272 56.616 48.064 45.94 50.608C45.96 50.404 46 50.208 46 50V42C45.9947 40.9139 45.6917 39.85 45.124 38.924C52.2394 37.845 58.8394 34.5681 64 29.552V36ZM58.828 28.844C59.5924 27.3433 59.9938 25.6841 60 24C60 15.028 48.58 8 34 8C19.42 8 8 15.028 8 24C8.00664 25.6841 8.40805 27.3431 9.172 28.844C7.69157 27.8629 6.45563 26.5556 5.55907 25.0225C4.66251 23.4895 4.12917 21.7713 4 20C4 11.328 17.74 4 34 4C50.26 4 64 11.328 64 20C63.8708 21.7713 63.3375 23.4895 62.4409 25.0225C61.5444 26.5556 60.3084 27.8629 58.828 28.844Z" fill="#393D46"/>
</svg>
