<svg width="32" height="31" viewBox="0 0 32 31" fill="none" xmlns="http://www.w3.org/2000/svg">
<path d="M6.99986 15C6.99986 14.7348 7.10522 14.4804 7.29275 14.2929C7.48029 14.1054 7.73464 14 7.99986 14L21.5899 14L20.2899 12.71C20.1016 12.5217 19.9958 12.2663 19.9958 12C19.9958 11.7337 20.1016 11.4783 20.2899 11.29C20.4782 11.1017 20.7336 10.9959 20.9999 10.9959C21.2662 10.9959 21.5216 11.1017 21.7099 11.29L24.7099 14.29C24.8486 14.4306 24.9426 14.6092 24.98 14.8032C25.0174 14.9972 24.9964 15.1979 24.9199 15.38C24.8448 15.5626 24.7174 15.7189 24.5537 15.8293C24.39 15.9396 24.1973 15.999 23.9999 16L7.99986 16C7.73464 16 7.48029 15.8946 7.29275 15.7071C7.10522 15.5196 6.99986 15.2652 6.99986 15Z" fill="#393D46"/>
<path d="M19.9998 18C19.9991 17.8684 20.0243 17.7379 20.074 17.6161C20.1238 17.4943 20.1971 17.3834 20.2898 17.29L23.2898 14.29C23.4781 14.1017 23.7335 13.9959 23.9998 13.9959C24.1317 13.9959 24.2622 14.0219 24.3841 14.0723C24.5059 14.1228 24.6166 14.1968 24.7098 14.29C24.8031 14.3832 24.877 14.4939 24.9275 14.6158C24.9779 14.7376 25.0039 14.8681 25.0039 15C25.0039 15.2663 24.8981 15.5217 24.7098 15.71L21.7098 18.71C21.6169 18.8037 21.5063 18.8781 21.3844 18.9289C21.2625 18.9797 21.1318 19.0058 20.9998 19.0058C20.8678 19.0058 20.7371 18.9797 20.6152 18.9289C20.4934 18.8781 20.3828 18.8037 20.2898 18.71C20.1971 18.6166 20.1238 18.5057 20.074 18.3839C20.0243 18.2621 19.9991 18.1316 19.9998 18Z" fill="#393D46"/>
</svg>
