<svg width="48" height="48" viewBox="0 0 48 48" fill="none" xmlns="http://www.w3.org/2000/svg">
<path d="M39.0008 14.0612H28.6188C28.261 14.0616 27.9098 14.1587 27.6025 14.3421C27.2952 14.5255 27.0431 14.7884 26.8728 15.1032C26.7369 14.5125 26.4685 13.9603 26.0879 13.4885C25.7074 13.0167 25.2245 12.6376 24.6759 12.3798C24.1273 12.122 23.5273 11.9922 22.9211 12.0003C22.315 12.0085 21.7187 12.1542 21.1772 12.4266C20.6356 12.699 20.1631 13.0909 19.7953 13.5727C19.4274 14.0545 19.1739 14.6136 19.0539 15.2078C18.9338 15.802 18.9504 16.4157 19.1023 17.0025C19.2542 17.5893 19.5375 18.1339 19.9308 18.5952C19.6908 18.6452 18.3008 18.9652 17.7588 19.0912C17.5069 19.1603 17.292 19.3252 17.1601 19.5506C17.0282 19.7761 16.9898 20.0442 17.053 20.2977C17.1163 20.5511 17.2761 20.7697 17.4985 20.9068C17.7208 21.0439 17.988 21.0885 18.2428 21.0312C19.9836 20.5315 21.7747 20.2276 23.5828 20.1252C22.0885 21.3803 20.1983 22.0661 18.2468 22.0612C15.6688 22.0628 13.1651 22.9253 11.1332 24.512C9.10123 26.0986 7.6574 28.3185 7.03082 30.8192C6.97682 31.0372 7.01283 31.9132 7.00083 33.0612C7.00083 33.4552 7.07842 33.8453 7.22919 34.2092C7.37995 34.5732 7.60093 34.9039 7.8795 35.1825C8.15808 35.4611 8.4888 35.6821 8.85277 35.8328C9.21675 35.9836 9.60686 36.0612 10.0008 36.0612H27.1728C27.9674 36.0586 28.7291 35.7432 29.2928 35.1832L30.0008 34.4752L30.7088 35.1832C31.2726 35.7432 32.0342 36.0586 32.8288 36.0612H38.0008C38.7965 36.0612 39.5595 35.7451 40.1221 35.1825C40.6848 34.6199 41.0008 33.8568 41.0008 33.0612V16.0612C41.0008 15.5308 40.7901 15.0221 40.415 14.647C40.04 14.2719 39.5313 14.0612 39.0008 14.0612ZM23.0008 18.0612C22.6053 18.0612 22.2186 17.9439 21.8897 17.7241C21.5608 17.5044 21.3044 17.192 21.1531 16.8266C21.0017 16.4611 20.9621 16.059 21.0393 15.671C21.1164 15.2831 21.3069 14.9267 21.5866 14.647C21.8663 14.3673 22.2227 14.1768 22.6106 14.0996C22.9986 14.0225 23.4007 14.0621 23.7662 14.2134C24.1316 14.3648 24.444 14.6212 24.6638 14.9501C24.8835 15.279 25.0008 15.6656 25.0008 16.0612V18.0612H23.0008ZM18.2468 24.0612C19.2471 24.0596 20.242 23.9141 21.2008 23.6292C21.5425 24.0299 21.9071 24.4106 22.2928 24.7692C22.4806 24.957 22.7353 25.0625 23.0008 25.0625C23.2664 25.0625 23.5211 24.957 23.7088 24.7692C23.8966 24.5814 24.0021 24.3267 24.0021 24.0612C24.0021 23.7956 23.8966 23.541 23.7088 23.3532L23.1568 22.8012C23.4068 22.6652 23.6568 22.5272 23.8948 22.3692L25.2948 23.7692C25.4826 23.957 25.7373 24.0625 26.0028 24.0625C26.2684 24.0625 26.5231 23.957 26.7108 23.7692C26.8986 23.5814 27.0041 23.3267 27.0041 23.0612C27.0041 22.7956 26.8986 22.541 26.7108 22.3532L25.4568 21.1012C25.6568 20.9012 25.8568 20.7012 26.0288 20.5012L27.2948 21.7692C27.3878 21.8622 27.4982 21.9359 27.6197 21.9862C27.7411 22.0366 27.8713 22.0625 28.0028 22.0625C28.1343 22.0625 28.2645 22.0366 28.386 21.9862C28.5075 21.9359 28.6178 21.8622 28.7108 21.7692C28.8038 21.6762 28.8776 21.5658 28.9279 21.4444C28.9782 21.3229 29.0041 21.1927 29.0041 21.0612C29.0041 20.9297 28.9782 20.7995 28.9279 20.678C28.8776 20.5566 28.8038 20.4462 28.7108 20.3532L27.1908 18.8352C27.8448 17.6812 27.9448 17.3792 28.6208 16.0612H39.0008V30.0612H9.37282C10.0822 28.2882 11.307 26.7688 12.8889 25.6992C14.4708 24.6296 16.3372 24.059 18.2468 24.0612ZM38.0008 34.0612H32.8288C32.1968 34.0612 31.9708 33.5432 31.4148 33.0612C31.0336 32.698 30.5273 32.4955 30.0008 32.4955C29.4743 32.4955 28.968 32.698 28.5868 33.0612C28.0288 33.5452 27.8028 34.0612 27.1728 34.0612H10.0008C9.73561 34.0612 9.48126 33.9558 9.29372 33.7683C9.10618 33.5808 9.00083 33.3264 9.00083 33.0612V32.0612H39.0008V33.0612C39.0008 33.3264 38.8955 33.5808 38.7079 33.7683C38.5204 33.9558 38.266 34.0612 38.0008 34.0612Z" fill="#393D46"/>
</svg>
