<svg width="48" height="48" viewBox="0 0 48 48" fill="none" xmlns="http://www.w3.org/2000/svg">
<path d="M37.3312 36.9611C38.5265 36.9611 39.7312 36.708 40.7156 35.9908C41.8499 35.1658 42.7593 33.9799 43.0124 32.5689C43.1906 31.5658 43.1343 30.5439 43.1343 29.5314C43.1343 27.2158 43.1484 24.8955 43.1343 22.5752C43.1296 21.4783 42.8156 20.3299 42.164 19.4392C41.3437 18.3142 40.1718 17.4096 38.7749 17.1517C38.2359 17.0486 37.6827 16.9971 37.1343 17.0252C36.3093 17.0674 35.5921 17.2689 34.8515 17.6158C33.5577 18.2205 32.6437 19.3924 32.1327 20.6908C31.7202 21.7361 31.7999 22.8986 31.7999 24.0002C31.7999 25.3877 31.7999 26.7799 31.7999 28.1674C31.7999 29.208 31.7999 30.2486 31.7999 31.2892C31.7999 32.2221 32.0015 33.0658 32.3952 33.9049C32.9952 35.1986 34.1718 36.1127 35.4702 36.6236C36.0562 36.858 36.7031 36.9564 37.3312 36.9611C38.3109 36.9705 39.2531 36.0939 39.2062 35.0861C39.1593 34.0642 38.3812 33.2205 37.3312 33.2111C37.1577 33.2111 36.989 33.1971 36.8156 33.1736C36.9796 33.1971 37.1484 33.2205 37.3124 33.2392C36.9984 33.1924 36.6984 33.108 36.4077 32.9861C36.5577 33.0471 36.7077 33.1127 36.8577 33.1736C36.5718 33.0517 36.3093 32.8971 36.0609 32.7096C36.1874 32.808 36.314 32.9064 36.4406 33.0049C36.1827 32.8033 35.9531 32.5736 35.7515 32.3158C35.8499 32.4424 35.9484 32.5689 36.0468 32.6955C35.8593 32.4471 35.7046 32.1846 35.5827 31.8986C35.6437 32.0486 35.7093 32.1986 35.7702 32.3486C35.6484 32.058 35.564 31.758 35.5171 31.4439C35.5406 31.608 35.564 31.7767 35.5827 31.9408C35.5265 31.5236 35.5452 31.0971 35.5452 30.6752C35.5452 29.9486 35.5452 29.2267 35.5452 28.5002C35.5452 26.8314 35.5452 25.1674 35.5452 23.4986C35.5452 23.0111 35.5171 22.5142 35.5827 22.0314C35.5593 22.1955 35.5359 22.3642 35.5171 22.5283C35.564 22.2142 35.6484 21.9142 35.7702 21.6236C35.7093 21.7736 35.6437 21.9236 35.5827 22.0736C35.7046 21.7877 35.8593 21.5252 36.0468 21.2767C35.9484 21.4033 35.8499 21.5299 35.7515 21.6564C35.9531 21.3986 36.1827 21.1689 36.4406 20.9674C36.314 21.0658 36.1874 21.1642 36.0609 21.2627C36.3093 21.0752 36.5718 20.9205 36.8577 20.7986C36.7077 20.8596 36.5577 20.9252 36.4077 20.9861C36.6984 20.8642 36.9984 20.7799 37.3124 20.733C37.1484 20.7564 36.9796 20.7799 36.8156 20.7986C37.2421 20.7424 37.6921 20.7424 38.1187 20.7986C37.9546 20.7752 37.7859 20.7517 37.6218 20.733C37.9359 20.7799 38.2359 20.8642 38.5265 20.9861C38.3765 20.9252 38.2265 20.8596 38.0765 20.7986C38.3624 20.9205 38.6249 21.0752 38.8734 21.2627C38.7468 21.1642 38.6202 21.0658 38.4937 20.9674C38.7515 21.1689 38.9812 21.3986 39.1827 21.6564C39.0843 21.5299 38.9859 21.4033 38.8874 21.2767C39.0749 21.5252 39.2296 21.7877 39.3515 22.0736C39.2906 21.9236 39.2249 21.7736 39.164 21.6236C39.2859 21.9142 39.3702 22.2142 39.4171 22.5283C39.3937 22.3642 39.3702 22.1955 39.3515 22.0314C39.4077 22.4486 39.389 22.8752 39.389 23.2971C39.389 24.0236 39.389 24.7455 39.389 25.4721C39.389 27.1408 39.389 28.8049 39.389 30.4736C39.389 30.9611 39.4171 31.458 39.3515 31.9408C39.3749 31.7767 39.3984 31.608 39.4171 31.4439C39.3702 31.758 39.2859 32.058 39.164 32.3486C39.2249 32.1986 39.2906 32.0486 39.3515 31.8986C39.2296 32.1846 39.0749 32.4471 38.8874 32.6955C38.9859 32.5689 39.0843 32.4424 39.1827 32.3158C38.9812 32.5736 38.7515 32.8033 38.4937 33.0049C38.6202 32.9064 38.7468 32.808 38.8734 32.7096C38.6249 32.8971 38.3624 33.0517 38.0765 33.1736C38.2265 33.1127 38.3765 33.0471 38.5265 32.9861C38.2359 33.108 37.9359 33.1924 37.6218 33.2392C37.7859 33.2158 37.9546 33.1924 38.1187 33.1736C37.8562 33.2064 37.5937 33.2111 37.3312 33.2111C36.3515 33.2111 35.4093 34.0736 35.4562 35.0861C35.5031 36.1033 36.2812 36.9611 37.3312 36.9611ZM10.3968 36.9611C11.5921 36.9611 12.7968 36.708 13.7812 35.9908C14.9156 35.1658 15.8249 33.9799 16.0781 32.5689C16.2562 31.5658 16.1999 30.5439 16.1999 29.5314C16.1999 27.2158 16.214 24.8955 16.1999 22.5752C16.1952 21.4783 15.8812 20.3299 15.2296 19.4392C14.4093 18.3142 13.2374 17.4096 11.8406 17.1517C11.3015 17.0486 10.7484 16.9971 10.1999 17.0252C9.37494 17.0674 8.65775 17.2689 7.91713 17.6158C6.62338 18.2205 5.70931 19.3924 5.19838 20.6908C4.78588 21.7361 4.86556 22.8986 4.86556 24.0002C4.86556 25.3877 4.86556 26.7799 4.86556 28.1674C4.86556 29.208 4.86556 30.2486 4.86556 31.2892C4.86556 32.2221 5.06713 33.0658 5.46088 33.9049C6.06088 35.1986 7.23744 36.1127 8.53588 36.6236C9.12181 36.858 9.76869 36.9564 10.3968 36.9611C11.3765 36.9705 12.3187 36.0939 12.2718 35.0861C12.2249 34.0642 11.4468 33.2205 10.3968 33.2111C10.2234 33.2111 10.0546 33.1971 9.88119 33.1736C10.0453 33.1971 10.214 33.2205 10.3781 33.2392C10.064 33.1924 9.764 33.108 9.47338 32.9861C9.62338 33.0471 9.77338 33.1127 9.92338 33.1736C9.63744 33.0517 9.37494 32.8971 9.1265 32.7096C9.25306 32.808 9.37963 32.9064 9.50619 33.0049C9.24838 32.8033 9.01869 32.5736 8.81713 32.3158C8.91556 32.4424 9.014 32.5689 9.11244 32.6955C8.92494 32.4471 8.77025 32.1846 8.64838 31.8986C8.70931 32.0486 8.77494 32.1986 8.83588 32.3486C8.714 32.058 8.62963 31.758 8.58275 31.4439C8.60619 31.608 8.62963 31.7767 8.64838 31.9408C8.59213 31.5236 8.61088 31.0971 8.61088 30.6752C8.61088 29.9486 8.61088 29.2267 8.61088 28.5002C8.61088 26.8314 8.61088 25.1674 8.61088 23.4986C8.61088 23.0111 8.58275 22.5142 8.64838 22.0314C8.62494 22.1955 8.6015 22.3642 8.58275 22.5283C8.62963 22.2142 8.714 21.9142 8.83588 21.6236C8.77494 21.7736 8.70931 21.9236 8.64838 22.0736C8.77025 21.7877 8.92494 21.5252 9.11244 21.2767C9.014 21.4033 8.91556 21.5299 8.81713 21.6564C9.01869 21.3986 9.24838 21.1689 9.50619 20.9674C9.37963 21.0658 9.25306 21.1642 9.1265 21.2627C9.37494 21.0752 9.63744 20.9205 9.92338 20.7986C9.77338 20.8596 9.62338 20.9252 9.47338 20.9861C9.764 20.8642 10.064 20.7799 10.3781 20.733C10.214 20.7564 10.0453 20.7799 9.88119 20.7986C10.3078 20.7424 10.7578 20.7424 11.1843 20.7986C11.0203 20.7752 10.8515 20.7517 10.6874 20.733C11.0015 20.7799 11.3015 20.8642 11.5921 20.9861C11.4421 20.9252 11.2921 20.8596 11.1421 20.7986C11.4281 20.9205 11.6906 21.0752 11.939 21.2627C11.8124 21.1642 11.6859 21.0658 11.5593 20.9674C11.8171 21.1689 12.0468 21.3986 12.2484 21.6564C12.1499 21.5299 12.0515 21.4033 11.9531 21.2767C12.1406 21.5252 12.2952 21.7877 12.4171 22.0736C12.3562 21.9236 12.2906 21.7736 12.2296 21.6236C12.3515 21.9142 12.4359 22.2142 12.4827 22.5283C12.4593 22.3642 12.4359 22.1955 12.4171 22.0314C12.4734 22.4486 12.4546 22.8752 12.4546 23.2971C12.4546 24.0236 12.4546 24.7455 12.4546 25.4721C12.4546 27.1408 12.4546 28.8049 12.4546 30.4736C12.4546 30.9611 12.4827 31.458 12.4171 31.9408C12.4406 31.7767 12.464 31.608 12.4827 31.4439C12.4359 31.758 12.3515 32.058 12.2296 32.3486C12.2906 32.1986 12.3562 32.0486 12.4171 31.8986C12.2952 32.1846 12.1406 32.4471 11.9531 32.6955C12.0515 32.5689 12.1499 32.4424 12.2484 32.3158C12.0468 32.5736 11.8171 32.8033 11.5593 33.0049C11.6859 32.9064 11.8124 32.808 11.939 32.7096C11.6906 32.8971 11.4281 33.0517 11.1421 33.1736C11.2921 33.1127 11.4421 33.0471 11.5921 32.9861C11.3015 33.108 11.0015 33.1924 10.6874 33.2392C10.8515 33.2158 11.0203 33.1924 11.1843 33.1736C10.9218 33.2064 10.6593 33.2111 10.3968 33.2111C9.41713 33.2111 8.47494 34.0736 8.52181 35.0861C8.564 36.1033 9.34681 36.9611 10.3968 36.9611Z" fill="#393D46"/>
<path d="M8.61572 31.2937C8.61572 29.8499 8.61572 28.4062 8.61572 26.9624C8.61572 24.9608 8.61572 22.9593 8.61572 20.9577C8.61572 19.9921 8.63916 19.0312 8.76572 18.0749C8.74229 18.239 8.71885 18.4077 8.7001 18.5718C8.90635 17.0624 9.30947 15.5858 9.9001 14.1796C9.83916 14.3296 9.77354 14.4796 9.7126 14.6296C10.2985 13.2562 11.0532 11.9624 11.9673 10.7812C11.8688 10.9077 11.7704 11.0343 11.672 11.1608C12.5813 9.98896 13.636 8.93428 14.8079 8.0249C14.6813 8.12334 14.5548 8.22178 14.4282 8.32021C15.6095 7.41084 16.9032 6.65146 18.2767 6.06553C18.1267 6.12646 17.9767 6.19209 17.8267 6.25303C19.2329 5.6624 20.7095 5.25928 22.2189 5.05303C22.0548 5.07646 21.886 5.0999 21.722 5.11865C23.236 4.92177 24.7689 4.92177 26.2829 5.11865C26.1189 5.09521 25.9501 5.07178 25.786 5.05303C27.2954 5.25928 28.772 5.6624 30.1782 6.25303C30.0282 6.19209 29.8782 6.12646 29.7282 6.06553C31.1017 6.65146 32.3954 7.40615 33.5767 8.32021C33.4501 8.22178 33.3235 8.12334 33.197 8.0249C34.3689 8.93428 35.4235 9.98896 36.3329 11.1608C36.2345 11.0343 36.136 10.9077 36.0376 10.7812C36.947 11.9624 37.7064 13.2562 38.2923 14.6296C38.2314 14.4796 38.1657 14.3296 38.1048 14.1796C38.6954 15.5858 39.0985 17.0624 39.3048 18.5718C39.2814 18.4077 39.2579 18.239 39.2392 18.0749C39.3704 19.0687 39.3892 20.0624 39.3892 21.0608C39.3892 22.1437 39.3892 23.2218 39.3892 24.3046C39.3892 26.9999 39.3892 29.6952 39.3892 32.3905C39.3892 33.2577 39.4267 34.139 39.3142 35.0015C39.3376 34.8374 39.361 34.6687 39.3798 34.5046C39.2814 35.2171 39.0939 35.9108 38.8173 36.5718C38.8782 36.4218 38.9439 36.2718 39.0048 36.1218C38.7235 36.7874 38.3579 37.4108 37.9126 37.9874C38.011 37.8608 38.1095 37.7343 38.2079 37.6077C37.7767 38.1608 37.2845 38.653 36.7314 39.0843C36.8579 38.9858 36.9845 38.8874 37.111 38.789C36.5392 39.2296 35.911 39.5952 35.2454 39.8812C35.3954 39.8202 35.5454 39.7546 35.6954 39.6937C35.0298 39.9702 34.3407 40.1577 33.6282 40.2562C33.7923 40.2327 33.961 40.2093 34.1251 40.1905C33.3985 40.2843 32.6673 40.2655 31.936 40.2655C31.0267 40.2655 30.1173 40.2655 29.2079 40.2655C28.9782 40.2655 28.7532 40.2655 28.5235 40.2655C27.5439 40.2655 26.6017 41.128 26.6485 42.1405C26.6954 43.1577 27.4735 44.0155 28.5235 44.0155C29.6767 44.0155 30.8251 44.0155 31.9782 44.0155C32.4142 44.0155 32.8501 44.0249 33.286 44.0108C34.6407 43.9687 35.9017 43.6499 37.1392 43.1202C39.2251 42.2249 41.0345 40.5046 42.0376 38.4702C42.6376 37.2515 42.9798 36.0046 43.1064 34.6499C43.1392 34.303 43.1392 33.9562 43.1392 33.6046C43.1392 31.1812 43.1392 28.7577 43.1392 26.3343C43.1392 24.3421 43.1439 22.3499 43.1392 20.3577C43.1345 18.1874 42.7735 15.9796 42.0235 13.9405C41.2173 11.7468 40.0642 9.76865 38.5642 7.97803C35.7657 4.64053 31.7064 2.26865 27.4173 1.53271C25.0314 1.12021 22.6501 1.13427 20.2735 1.58896C18.1126 2.00146 15.9939 2.84052 14.1142 3.98427C10.2657 6.33271 7.3501 9.98428 5.87822 14.2358C5.19854 16.1952 4.87041 18.2999 4.86572 20.3718C4.86572 21.178 4.86572 21.9796 4.86572 22.7858C4.86572 25.4343 4.86572 28.0874 4.86572 30.7358C4.86572 30.9233 4.86572 31.1062 4.86572 31.2937C4.86572 32.2733 5.72822 33.2155 6.74072 33.1687C7.75322 33.1218 8.61572 32.3437 8.61572 31.2937Z" fill="#393D46"/>
<path d="M26.6486 42.1361C26.6486 42.2673 26.6393 42.3986 26.6205 42.5251C26.6439 42.3611 26.6674 42.1923 26.6861 42.0283C26.6486 42.258 26.5877 42.483 26.5033 42.6986C26.5643 42.5486 26.6299 42.3986 26.6908 42.2486C26.5924 42.4783 26.4658 42.6892 26.3158 42.8908C26.4143 42.7642 26.5127 42.6376 26.6111 42.5111C26.4705 42.6892 26.3111 42.8486 26.133 42.9892C26.2596 42.8908 26.3861 42.7923 26.5127 42.6939C26.3158 42.8439 26.1002 42.9705 25.8705 43.0689C26.0205 43.008 26.1705 42.9423 26.3205 42.8814C26.1049 42.9705 25.8799 43.0314 25.6502 43.0642C25.8143 43.0408 25.983 43.0173 26.1471 42.9986C25.533 43.0783 24.8908 43.0267 24.2721 43.0267C23.6439 43.0267 22.9924 43.0783 22.3689 43.0033C22.533 43.0267 22.7018 43.0501 22.8658 43.0689C22.6221 43.0314 22.3924 42.9705 22.1627 42.8767C22.3127 42.9376 22.4627 43.0033 22.6127 43.0642C22.3924 42.9658 22.1908 42.8486 21.9986 42.7033C22.1252 42.8017 22.2518 42.9001 22.3783 42.9986C22.1908 42.8486 22.0268 42.6845 21.8768 42.497C21.9752 42.6236 22.0736 42.7501 22.1721 42.8767C22.0268 42.6845 21.9096 42.483 21.8111 42.2626C21.8721 42.4126 21.9377 42.5626 21.9986 42.7126C21.9049 42.4876 21.8439 42.2533 21.8064 42.0095C21.8299 42.1736 21.8533 42.3423 21.8721 42.5064C21.8393 42.2486 21.8393 41.9955 21.8721 41.7423C21.8486 41.9064 21.8252 42.0751 21.8064 42.2392C21.8439 42.0095 21.9049 41.7845 21.9893 41.5689C21.9283 41.7189 21.8627 41.8689 21.8018 42.0189C21.9002 41.7892 22.0268 41.5783 22.1768 41.3767C22.0783 41.5033 21.9799 41.6298 21.8814 41.7564C22.0221 41.5783 22.1814 41.4189 22.3596 41.2783C22.233 41.3767 22.1064 41.4751 21.9799 41.5736C22.1768 41.4236 22.3924 41.297 22.6221 41.1986C22.4721 41.2595 22.3221 41.3251 22.1721 41.3861C22.3877 41.297 22.6127 41.2361 22.8424 41.2033C22.6783 41.2267 22.5096 41.2501 22.3455 41.2689C22.9596 41.1892 23.6018 41.2408 24.2205 41.2408C24.8486 41.2408 25.5002 41.1892 26.1236 41.2642C25.9596 41.2408 25.7908 41.2173 25.6268 41.1986C25.8705 41.2361 26.1002 41.297 26.3299 41.3908C26.1799 41.3298 26.0299 41.2642 25.8799 41.2033C26.1002 41.3017 26.3018 41.4189 26.4939 41.5642C26.3674 41.4658 26.2408 41.3673 26.1142 41.2689C26.3017 41.4189 26.4658 41.583 26.6158 41.7705C26.5174 41.6439 26.4189 41.5173 26.3205 41.3908C26.4658 41.583 26.583 41.7845 26.6814 42.0048C26.6205 41.8548 26.5549 41.7048 26.4939 41.5548C26.5877 41.7798 26.6486 42.0142 26.6861 42.258C26.6627 42.0939 26.6393 41.9251 26.6205 41.7611C26.6393 41.8876 26.6439 42.0095 26.6486 42.1361C26.6533 42.6189 26.8549 43.1158 27.1971 43.4626C27.5205 43.7861 28.0549 44.0345 28.5236 44.0111C29.5267 43.9642 30.4127 43.1861 30.3986 42.1361C30.3892 41.283 30.1596 40.3923 29.6861 39.6705C29.2408 38.9955 28.6361 38.3814 27.9049 38.0205C27.2158 37.683 26.5127 37.4955 25.7346 37.4861C25.5471 37.4861 25.3643 37.4861 25.1768 37.4861C24.5064 37.4861 23.8314 37.4861 23.1611 37.4861C23.0205 37.4861 22.8752 37.4861 22.7346 37.4861C21.9471 37.4955 21.1971 37.6923 20.4986 38.0626C19.8236 38.4189 19.2986 38.9673 18.858 39.5814C18.4033 40.2189 18.2111 40.9736 18.1127 41.7423C18.0096 42.5955 18.2252 43.4533 18.5908 44.222C18.9424 44.972 19.5377 45.5626 20.2127 46.0314C21.0658 46.622 22.0877 46.7814 23.1002 46.7814C23.7705 46.7814 24.4361 46.7814 25.1064 46.7814C25.3174 46.7814 25.533 46.7814 25.7439 46.7814C26.5361 46.772 27.2861 46.5751 27.9846 46.2048C29.4705 45.4173 30.3799 43.7908 30.3986 42.1314C30.408 41.1517 29.5267 40.2095 28.5236 40.2564C27.4971 40.308 26.658 41.0861 26.6486 42.1361Z" fill="#393D46"/>
</svg>
