<svg width="67" height="60" viewBox="0 0 67 60" fill="none" xmlns="http://www.w3.org/2000/svg">
<path d="M19.1711 60H47.1711C48.232 60 49.2494 59.5786 49.9996 58.8284C50.7497 58.0783 51.1711 57.0609 51.1711 56V22.828L54.3431 26C55.1046 26.7281 56.1176 27.1345 57.1711 27.1345C58.2247 27.1345 59.2377 26.7281 59.9991 26L65.1711 20.828C65.921 20.0779 66.3423 19.0607 66.3423 18C66.3423 16.9394 65.921 15.9221 65.1711 15.172L51.7551 1.75602C51.1995 1.19765 50.5387 0.754964 49.8109 0.453557C49.0832 0.152149 48.3029 -0.00200162 47.5151 1.96223e-05H18.8271C18.0394 -0.00200162 17.2591 0.152149 16.5314 0.453557C15.8036 0.754964 15.1428 1.19765 14.5871 1.75602L1.17115 15.172C0.421262 15.9221 0 16.9394 0 18C0 19.0607 0.421262 20.0779 1.17115 20.828L6.34315 26C7.10462 26.7281 8.11758 27.1345 9.17115 27.1345C10.2247 27.1345 11.2377 26.7281 11.9991 26L15.1711 22.828V56C15.1711 57.0609 15.5926 58.0783 16.3427 58.8284C17.0929 59.5786 18.1103 60 19.1711 60ZM38.8031 4.00002C38.3959 5.16911 37.6348 6.18247 36.6257 6.89956C35.6165 7.61665 34.4092 8.00191 33.1711 8.00191C31.9331 8.00191 30.7258 7.61665 29.7166 6.89956C28.7075 6.18247 27.9464 5.16911 27.5391 4.00002H38.8031ZM9.17115 23.172L3.99915 18L17.4151 4.58402C17.79 4.21014 18.2977 4.00013 18.8271 4.00002H23.3751C23.8342 6.2606 25.0606 8.29297 26.8466 9.75278C28.6327 11.2126 30.8684 12.01 33.1751 12.01C35.4819 12.01 37.7176 11.2126 39.5037 9.75278C41.2897 8.29297 42.5161 6.2606 42.9751 4.00002H47.5231C48.0526 4.00013 48.5603 4.21014 48.9351 4.58402L62.3431 18L57.1711 23.172L50.5871 16.584C50.3074 16.3036 49.9507 16.1125 49.5623 16.0351C49.1739 15.9576 48.7712 15.9972 48.4053 16.1489C48.0394 16.3005 47.7268 16.5574 47.5071 16.887C47.2874 17.2166 47.1704 17.6039 47.1711 18V56H19.1711V18C19.1719 17.6039 19.0549 17.2166 18.8352 16.887C18.6155 16.5574 18.3029 16.3005 17.937 16.1489C17.5711 15.9972 17.1684 15.9576 16.78 16.0351C16.3916 16.1125 16.0349 16.3036 15.7551 16.584L9.17115 23.172Z" fill="#393D46"/>
</svg>
