<svg width="112" height="48" viewBox="0 0 112 48" fill="none" xmlns="http://www.w3.org/2000/svg">
<path d="M74.4998 24.1999C74.4998 23.7892 74.6578 23.3954 74.9391 23.105C75.2204 22.8146 75.602 22.6515 75.9998 22.6515L96.3848 22.6515L94.4348 20.6541C94.1523 20.3625 93.9937 19.9671 93.9937 19.5547C93.9937 19.1424 94.1523 18.7469 94.4348 18.4554C94.7172 18.1638 95.1003 18 95.4998 18C95.8992 18 96.2823 18.1638 96.5648 18.4554L101.065 23.1005C101.273 23.3183 101.414 23.5948 101.47 23.8951C101.526 24.1955 101.495 24.5063 101.38 24.7883C101.267 25.071 101.076 25.3131 100.831 25.4839C100.585 25.6548 100.296 25.7467 99.9998 25.7483L75.9998 25.7483C75.602 25.7483 75.2204 25.5851 74.9391 25.2948C74.6578 25.0044 74.4998 24.6105 74.4998 24.1999Z" fill="#393D46"/>
<path d="M93.9997 28.845C93.9986 28.6412 94.0364 28.4392 94.1111 28.2506C94.1857 28.0619 94.2957 27.8903 94.4347 27.7457L98.9347 23.1005C99.2172 22.8089 99.6003 22.6451 99.9997 22.6451C100.198 22.6451 100.393 22.6854 100.576 22.7635C100.759 22.8416 100.925 22.9561 101.065 23.1005C101.205 23.2449 101.316 23.4163 101.391 23.6049C101.467 23.7935 101.506 23.9957 101.506 24.1999C101.506 24.6122 101.347 25.0077 101.065 25.2992L96.5647 29.9444C96.4253 30.0895 96.2594 30.2047 96.0766 30.2833C95.8938 30.3619 95.6977 30.4024 95.4997 30.4024C95.3017 30.4024 95.1056 30.3619 94.9229 30.2833C94.7401 30.2047 94.5742 30.0895 94.4347 29.9444C94.2957 29.7997 94.1857 29.6281 94.1111 29.4395C94.0364 29.2508 93.9986 29.0488 93.9997 28.845Z" fill="#393D46"/>
<path d="M37.5002 24.1999C37.5002 23.7892 37.3422 23.3954 37.0609 23.105C36.7796 22.8146 36.398 22.6515 36.0002 22.6515L15.6152 22.6515L17.5652 20.6541C17.8477 20.3625 18.0063 19.9671 18.0063 19.5547C18.0063 19.1424 17.8477 18.7469 17.5652 18.4554C17.2828 18.1638 16.8997 18 16.5002 18C16.1008 18 15.7177 18.1638 15.4352 18.4554L10.9352 23.1005C10.7271 23.3183 10.5861 23.5948 10.53 23.8951C10.474 24.1955 10.5053 24.5063 10.6202 24.7883C10.7327 25.071 10.9238 25.3131 11.1694 25.4839C11.415 25.6548 11.7041 25.7467 12.0002 25.7483L36.0002 25.7483C36.398 25.7483 36.7796 25.5851 37.0609 25.2948C37.3422 25.0044 37.5002 24.6105 37.5002 24.1999Z" fill="#CDCFD1"/>
<path d="M18.0003 28.845C18.0014 28.6412 17.9636 28.4392 17.8889 28.2506C17.8143 28.0619 17.7043 27.8903 17.5653 27.7457L13.0653 23.1005C12.7828 22.8089 12.3997 22.6451 12.0003 22.6451C11.8025 22.6451 11.6066 22.6854 11.4239 22.7635C11.2412 22.8416 11.0751 22.9561 10.9353 23.1005C10.7954 23.2449 10.6845 23.4163 10.6088 23.6049C10.5331 23.7935 10.4941 23.9957 10.4941 24.1999C10.4941 24.6122 10.6528 25.0076 10.9353 25.2992L15.4353 29.9444C15.5747 30.0895 15.7406 30.2047 15.9234 30.2833C16.1062 30.3619 16.3023 30.4024 16.5003 30.4024C16.6983 30.4024 16.8944 30.3619 17.0771 30.2833C17.2599 30.2047 17.4258 30.0895 17.5653 29.9444C17.7043 29.7997 17.8143 29.6281 17.8889 29.4395C17.9636 29.2508 18.0014 29.0488 18.0003 28.845Z" fill="#CDCFD1"/>
</svg>
