<svg width="48" height="48" viewBox="0 0 48 48" fill="none" xmlns="http://www.w3.org/2000/svg">
<path d="M27.2815 12.272C27.2815 12.9751 27.2815 13.6782 27.2815 14.3813C27.2815 16.0688 27.2815 17.7563 27.2815 19.4485C27.2815 21.4829 27.2815 23.5173 27.2815 25.5516C27.2815 27.3141 27.2815 29.0813 27.2815 30.8438C27.2815 31.697 27.2627 32.5548 27.2815 33.4079C27.2815 33.422 27.2815 33.4313 27.2815 33.4454C27.9049 32.822 28.533 32.1938 29.1565 31.5704C27.5815 31.5704 26.0065 31.5704 24.4315 31.5704C21.9143 31.5704 19.3924 31.5704 16.8752 31.5704C16.2986 31.5704 15.7221 31.5704 15.1502 31.5704C15.7736 32.1938 16.4018 32.822 17.0252 33.4454C17.0158 32.3438 16.7018 31.1813 16.0549 30.2813C15.633 29.6954 15.2111 29.2688 14.6393 28.8376C14.194 28.5001 13.6924 28.2704 13.1674 28.0782C11.0908 27.3095 8.50801 28.0173 7.0877 29.7095C6.19707 30.7735 5.68614 32.0485 5.67207 33.4501C6.29551 32.8266 6.92364 32.1985 7.54707 31.5751C6.97051 31.5751 6.39864 31.5751 5.82207 31.5751C5.23614 31.5751 4.62676 31.6266 4.04082 31.561C4.20488 31.5845 4.37364 31.6079 4.5377 31.6266C4.41114 31.6079 4.28926 31.5751 4.17207 31.5329C4.32207 31.5938 4.47207 31.6595 4.62207 31.7204C4.48614 31.6641 4.36426 31.5938 4.24707 31.5048C4.37364 31.6032 4.5002 31.7016 4.62676 31.8001C4.52832 31.7204 4.44395 31.636 4.36895 31.5423C4.46739 31.6688 4.56582 31.7954 4.66426 31.922C4.5752 31.8048 4.50489 31.6829 4.44864 31.547C4.50957 31.697 4.5752 31.847 4.63614 31.997C4.58926 31.8751 4.56114 31.7579 4.54239 31.6313C4.56582 31.7954 4.58926 31.9641 4.60801 32.1282C4.58457 31.9032 4.59395 31.6735 4.59395 31.4485C4.59395 30.9798 4.59395 30.5063 4.59395 30.0376C4.59395 28.4626 4.59395 26.8829 4.59395 25.3079C4.59395 23.4001 4.59395 21.4923 4.59395 19.5845C4.59395 17.9391 4.59395 16.2938 4.59395 14.6485C4.59395 13.8657 4.58457 13.0829 4.59395 12.3048C4.59395 12.2298 4.59864 12.1595 4.60801 12.0845C4.58457 12.2485 4.56114 12.4173 4.54239 12.5813C4.56114 12.4548 4.59395 12.3329 4.63614 12.2157C4.5752 12.3657 4.50957 12.5157 4.44864 12.6657C4.50489 12.5298 4.5752 12.4079 4.66426 12.2907C4.56582 12.4173 4.46739 12.5438 4.36895 12.6704C4.44864 12.572 4.53301 12.4876 4.62676 12.4126C4.5002 12.511 4.37364 12.6095 4.24707 12.7079C4.36426 12.6188 4.48614 12.5485 4.62207 12.4923C4.47207 12.5532 4.32207 12.6188 4.17207 12.6798C4.29395 12.6329 4.41114 12.6048 4.5377 12.586C4.37364 12.6095 4.20488 12.6329 4.04082 12.6516C4.29864 12.6235 4.56582 12.6376 4.82832 12.6376C5.39082 12.6376 5.95332 12.6376 6.51582 12.6376C8.39083 12.6376 10.2611 12.6376 12.1361 12.6376C14.4002 12.6376 16.6643 12.6376 18.933 12.6376C20.8924 12.6376 22.8518 12.6376 24.8111 12.6376C25.744 12.6376 26.6768 12.6235 27.6096 12.6376C27.6846 12.6376 27.7596 12.6423 27.8346 12.6516C27.6705 12.6282 27.5018 12.6048 27.3377 12.586C27.4643 12.6048 27.5862 12.6376 27.7033 12.6798C27.5533 12.6188 27.4033 12.5532 27.2533 12.4923C27.3893 12.5485 27.5112 12.6188 27.6283 12.7079C27.5018 12.6095 27.3752 12.511 27.2486 12.4126C27.3471 12.4923 27.4315 12.5766 27.5065 12.6704C27.408 12.5438 27.3096 12.4173 27.2112 12.2907C27.3002 12.4079 27.3705 12.5298 27.4268 12.6657C27.3658 12.5157 27.3002 12.3657 27.2393 12.2157C27.2861 12.3376 27.3143 12.4548 27.333 12.5813C27.3096 12.4173 27.2862 12.2485 27.2674 12.0845C27.2768 12.1407 27.2815 12.2063 27.2815 12.272C27.2908 12.7595 27.483 13.2516 27.8299 13.5985C28.1533 13.922 28.6877 14.1704 29.1565 14.147C30.1549 14.1001 31.0549 13.322 31.0315 12.272C31.0127 11.3954 30.694 10.6173 30.1221 9.96102C29.6862 9.46414 28.9877 9.06102 28.3315 8.95789C28.0502 8.91102 27.7737 8.87821 27.4877 8.87821C27.0518 8.87821 26.6112 8.87821 26.1752 8.87821C24.3237 8.87821 22.4721 8.87821 20.6205 8.87821C18.1971 8.87821 15.7783 8.87821 13.3549 8.87821C11.2408 8.87821 9.12676 8.87821 7.01739 8.87821C6.09395 8.87821 5.16582 8.85946 4.24239 8.87821C2.73301 8.90633 1.42051 9.88133 0.979883 11.3298C0.87207 11.6766 0.848633 12.047 0.848633 12.4126C0.848633 12.8954 0.848633 13.3782 0.848633 13.861C0.848633 15.8813 0.848633 17.897 0.848633 19.9173C0.848633 22.3032 0.848633 24.6938 0.848633 27.0798C0.848633 28.5985 0.848633 30.1126 0.848633 31.6313C0.848633 31.7298 0.848633 31.8282 0.848633 31.922C0.858008 32.5126 1.00332 33.0235 1.26113 33.5532C1.55176 34.1438 2.13301 34.697 2.73301 34.9595C3.24863 35.1891 3.73145 35.3204 4.30332 35.3251C4.47207 35.3251 4.64551 35.3251 4.81426 35.3251C5.40489 35.3251 5.99082 35.3251 6.58145 35.3251C6.90489 35.3251 7.22832 35.3251 7.55176 35.3251C8.57364 35.3251 9.41739 34.4673 9.42676 33.4501C9.42676 33.2766 9.44083 33.1032 9.46426 32.9298C9.44083 33.0938 9.41739 33.2626 9.39864 33.4266C9.44551 33.0891 9.53926 32.7657 9.66583 32.4563C9.60489 32.6063 9.53926 32.7563 9.47833 32.9063C9.60958 32.6016 9.77833 32.3204 9.97989 32.0579C9.88145 32.1845 9.78301 32.311 9.68458 32.4376C9.87676 32.1938 10.0924 31.9782 10.3361 31.786C10.2096 31.8845 10.083 31.9829 9.95645 32.0813C10.219 31.8798 10.5002 31.711 10.8049 31.5798C10.6549 31.6407 10.5049 31.7063 10.3549 31.7673C10.669 31.636 10.9924 31.547 11.3252 31.5001C11.1611 31.5235 10.9924 31.547 10.8283 31.5657C11.1752 31.5188 11.5221 31.5188 11.869 31.5657C11.7049 31.5423 11.5361 31.5188 11.3721 31.5001C11.7096 31.547 12.033 31.6407 12.3424 31.7673C12.1924 31.7063 12.0424 31.6407 11.8924 31.5798C12.1971 31.711 12.4783 31.8798 12.7408 32.0813C12.6143 31.9829 12.4877 31.8845 12.3611 31.786C12.6049 31.9782 12.8205 32.1938 13.0127 32.4376C12.9143 32.311 12.8158 32.1845 12.7174 32.0579C12.919 32.3204 13.0877 32.6016 13.219 32.9063C13.158 32.7563 13.0924 32.6063 13.0315 32.4563C13.1627 32.7704 13.2518 33.0938 13.2986 33.4266C13.2752 33.2626 13.2518 33.0938 13.233 32.9298C13.2565 33.1032 13.2658 33.2766 13.2705 33.4501C13.2799 34.4626 14.1236 35.3251 15.1455 35.3251C16.7205 35.3251 18.2955 35.3251 19.8705 35.3251C22.3877 35.3251 24.9096 35.3251 27.4268 35.3251C28.0033 35.3251 28.5799 35.3251 29.1518 35.3251C30.1643 35.3251 31.0268 34.4673 31.0268 33.4501C31.0268 32.747 31.0268 32.0438 31.0268 31.3407C31.0268 29.6532 31.0268 27.9657 31.0268 26.2735C31.0268 24.2391 31.0268 22.2048 31.0268 20.1704C31.0268 18.4079 31.0268 16.6407 31.0268 14.8782C31.0268 14.0251 31.0408 13.1673 31.0268 12.3141C31.0268 12.3001 31.0268 12.2907 31.0268 12.2766C31.0268 11.297 30.1643 10.3548 29.1518 10.4016C28.1393 10.4438 27.2815 11.222 27.2815 12.272Z" fill="#393D46"/>
<path d="M43.4016 25.7764C43.4016 27.5998 43.4016 29.4186 43.4016 31.242C43.4016 31.5326 43.4203 31.8326 43.3875 32.1279C43.4109 31.9639 43.4344 31.7951 43.4531 31.6311C43.4344 31.7576 43.4016 31.8795 43.3594 31.9967C43.4203 31.8467 43.4859 31.6967 43.5469 31.5467C43.4906 31.6826 43.4203 31.8045 43.3312 31.9217C43.4297 31.7951 43.5281 31.6686 43.6266 31.542C43.5469 31.6404 43.4625 31.7248 43.3687 31.7998C43.4953 31.7014 43.6219 31.6029 43.7484 31.5045C43.6312 31.5936 43.5094 31.6639 43.3734 31.7201C43.5234 31.6592 43.6734 31.5936 43.8234 31.5326C43.7016 31.5795 43.5844 31.6076 43.4578 31.6264C43.6219 31.6029 43.7906 31.5795 43.9547 31.5607C43.4719 31.6123 42.9703 31.5748 42.4828 31.5748C42.0094 31.5748 41.5406 31.5748 41.0672 31.5748C41.6906 32.1982 42.3187 32.8264 42.9422 33.4498C42.9328 32.3482 42.6187 31.1857 41.9719 30.2857C41.55 29.6998 41.1281 29.2732 40.5562 28.842C40.1109 28.5045 39.6094 28.2748 39.0844 28.0826C37.0031 27.3139 34.425 28.0217 33.0047 29.7139C32.1141 30.7779 31.6031 32.0529 31.5891 33.4545C32.2125 32.8311 32.8406 32.2029 33.4641 31.5795C32.2078 31.5795 30.9562 31.5795 29.7 31.5795C29.5172 31.5795 29.3344 31.5795 29.1516 31.5795C29.775 32.2029 30.4031 32.8311 31.0266 33.4545C31.0266 32.9014 31.0266 32.3529 31.0266 31.7998C31.0266 30.4779 31.0266 29.1514 31.0266 27.8295C31.0266 26.2264 31.0266 24.6279 31.0266 23.0248C31.0266 21.642 31.0266 20.2545 31.0266 18.8717C31.0266 18.1967 31.0406 17.5217 31.0266 16.8467C31.0266 16.8373 31.0266 16.8279 31.0266 16.8186C30.4031 17.442 29.775 18.0701 29.1516 18.6936C30.1078 18.6936 31.0641 18.6936 32.0203 18.6936C33.5156 18.6936 35.0109 18.6936 36.5062 18.6936C36.9047 18.6936 37.3219 18.6654 37.7156 18.7123C37.5516 18.6889 37.3828 18.6654 37.2187 18.6467C37.3875 18.6748 37.5422 18.717 37.7016 18.7779C37.5516 18.717 37.4016 18.6514 37.2516 18.5904C37.4297 18.6654 37.5937 18.7592 37.7437 18.8764C37.6172 18.7779 37.4906 18.6795 37.3641 18.5811C37.6734 18.8295 37.9172 19.1717 38.1703 19.4717C38.625 20.0154 39.0797 20.5592 39.5391 21.1029C40.6031 22.3732 41.6672 23.6482 42.7359 24.9186C42.9937 25.2279 43.2562 25.5326 43.5094 25.842C43.4109 25.7154 43.3125 25.5889 43.2141 25.4623C43.3219 25.6076 43.4062 25.7529 43.4812 25.917C43.4203 25.767 43.3547 25.617 43.2937 25.467C43.3594 25.6311 43.4062 25.7951 43.4344 25.9732C43.4109 25.8092 43.3875 25.6404 43.3687 25.4764C43.3922 25.5748 43.4016 25.6732 43.4016 25.7764C43.4109 26.2639 43.6031 26.7561 43.95 27.1029C44.2734 27.4264 44.8078 27.6748 45.2766 27.6514C46.275 27.6045 47.1703 26.8264 47.1516 25.7764C47.1375 25.1014 46.9734 24.4826 46.6641 23.8826C46.5187 23.6014 46.3078 23.3529 46.1062 23.1092C46.0219 23.0107 45.9422 22.9123 45.8578 22.8139C45.45 22.3264 45.0375 21.8342 44.6297 21.3467C43.5234 20.0248 42.4125 18.6982 41.3062 17.3764C41.0016 17.0107 40.6969 16.6451 40.3922 16.2842C39.6469 15.3982 38.5078 14.9389 37.3641 14.9389C36.0094 14.9342 34.65 14.9389 33.2953 14.9389C31.9406 14.9389 30.5812 14.9248 29.2266 14.9389C29.2031 14.9389 29.1797 14.9389 29.1562 14.9389C28.1437 14.9389 27.2812 15.7967 27.2812 16.8139C27.2812 17.367 27.2812 17.9154 27.2812 18.4686C27.2812 19.7904 27.2812 21.117 27.2812 22.4389C27.2812 24.042 27.2812 25.6404 27.2812 27.2436C27.2812 28.6264 27.2812 30.0139 27.2812 31.3967C27.2812 32.0717 27.2719 32.7467 27.2812 33.4217C27.2812 33.4311 27.2812 33.4404 27.2812 33.4498C27.2812 34.4623 28.1391 35.3248 29.1562 35.3248C30.4125 35.3248 31.6641 35.3248 32.9203 35.3248C33.1031 35.3248 33.2859 35.3248 33.4687 35.3248C34.4906 35.3248 35.3344 34.467 35.3437 33.4498C35.3437 33.2764 35.3578 33.1029 35.3812 32.9295C35.3578 33.0936 35.3344 33.2623 35.3156 33.4264C35.3625 33.0889 35.4562 32.7654 35.5828 32.4561C35.5219 32.6061 35.4562 32.7561 35.3953 32.9061C35.5266 32.6014 35.6953 32.3201 35.8969 32.0576C35.7984 32.1842 35.7 32.3107 35.6016 32.4373C35.7937 32.1936 36.0094 31.9779 36.2531 31.7857C36.1266 31.8842 36 31.9826 35.8734 32.0811C36.1359 31.8795 36.4172 31.7107 36.7219 31.5795C36.5719 31.6404 36.4219 31.7061 36.2719 31.767C36.5859 31.6357 36.9094 31.5467 37.2422 31.4998C37.0781 31.5232 36.9094 31.5467 36.7453 31.5654C37.0922 31.5186 37.4391 31.5186 37.7859 31.5654C37.6219 31.542 37.4531 31.5186 37.2891 31.4998C37.6266 31.5467 37.95 31.6404 38.2594 31.767C38.1094 31.7061 37.9594 31.6404 37.8094 31.5795C38.1141 31.7107 38.3953 31.8795 38.6578 32.0811C38.5312 31.9826 38.4047 31.8842 38.2781 31.7857C38.5219 31.9779 38.7375 32.1936 38.9297 32.4373C38.8312 32.3107 38.7328 32.1842 38.6344 32.0576C38.8359 32.3201 39.0047 32.6014 39.1359 32.9061C39.075 32.7561 39.0094 32.6061 38.9484 32.4561C39.0797 32.7701 39.1687 33.0936 39.2156 33.4264C39.1922 33.2623 39.1687 33.0936 39.15 32.9295C39.1734 33.1029 39.1828 33.2764 39.1875 33.4498C39.1969 34.4623 40.0406 35.3248 41.0625 35.3248C41.8031 35.3248 42.5484 35.3248 43.2891 35.3248C43.7812 35.3248 44.2828 35.3342 44.7562 35.1701C45.3281 34.9779 45.8859 34.6592 46.275 34.1904C46.4719 33.9514 46.6594 33.717 46.7812 33.4357C46.9875 32.9717 47.0812 32.6295 47.1328 32.1232C47.1844 31.5982 47.1469 31.0498 47.1469 30.5248C47.1469 29.5639 47.1469 28.6029 47.1469 27.642C47.1469 27.0186 47.1469 26.3998 47.1469 25.7764C47.1469 24.7967 46.2844 23.8545 45.2719 23.9014C44.2641 23.9482 43.4016 24.7264 43.4016 25.7764ZM13.2703 33.4451C13.2703 33.6186 13.2562 33.792 13.2328 33.9654C13.2562 33.8014 13.2797 33.6326 13.2984 33.4686C13.2516 33.8061 13.1578 34.1295 13.0312 34.4389C13.0922 34.2889 13.1578 34.1389 13.2187 33.9889C13.0875 34.2936 12.9187 34.5748 12.7172 34.8373C12.8156 34.7107 12.9141 34.5842 13.0125 34.4576C12.8203 34.7014 12.6047 34.917 12.3609 35.1092C12.4875 35.0107 12.6141 34.9123 12.7406 34.8139C12.4781 35.0154 12.1969 35.1842 11.8922 35.3154C12.0422 35.2545 12.1922 35.1889 12.3422 35.1279C12.0281 35.2592 11.7047 35.3482 11.3719 35.3951C11.5359 35.3717 11.7047 35.3482 11.8687 35.3295C11.5219 35.3764 11.175 35.3764 10.8281 35.3295C10.9922 35.3529 11.1609 35.3764 11.325 35.3951C10.9875 35.3482 10.6641 35.2545 10.3547 35.1279C10.5047 35.1889 10.6547 35.2545 10.8047 35.3154C10.5 35.1842 10.2187 35.0154 9.95625 34.8139C10.0828 34.9123 10.2094 35.0107 10.3359 35.1092C10.0922 34.917 9.87656 34.7014 9.68437 34.4576C9.78281 34.5842 9.88125 34.7107 9.97969 34.8373C9.77812 34.5748 9.60937 34.2936 9.47812 33.9889C9.53906 34.1389 9.60469 34.2889 9.66562 34.4389C9.53437 34.1248 9.44531 33.8014 9.39844 33.4686C9.42187 33.6326 9.44531 33.8014 9.46406 33.9654C9.41719 33.6186 9.41719 33.2717 9.46406 32.9248C9.44062 33.0889 9.41719 33.2576 9.39844 33.4217C9.44531 33.0842 9.53906 32.7607 9.66562 32.4514C9.60469 32.6014 9.53906 32.7514 9.47812 32.9014C9.60937 32.5967 9.77812 32.3154 9.97969 32.0529C9.88125 32.1795 9.78281 32.3061 9.68437 32.4326C9.87656 32.1889 10.0922 31.9732 10.3359 31.7811C10.2094 31.8795 10.0828 31.9779 9.95625 32.0764C10.2187 31.8748 10.5 31.7061 10.8047 31.5748C10.6547 31.6357 10.5047 31.7014 10.3547 31.7623C10.6687 31.6311 10.9922 31.542 11.325 31.4951C11.1609 31.5186 10.9922 31.542 10.8281 31.5607C11.175 31.5139 11.5219 31.5139 11.8687 31.5607C11.7047 31.5373 11.5359 31.5139 11.3719 31.4951C11.7094 31.542 12.0328 31.6357 12.3422 31.7623C12.1922 31.7014 12.0422 31.6357 11.8922 31.5748C12.1969 31.7061 12.4781 31.8748 12.7406 32.0764C12.6141 31.9779 12.4875 31.8795 12.3609 31.7811C12.6047 31.9732 12.8203 32.1889 13.0125 32.4326C12.9141 32.3061 12.8156 32.1795 12.7172 32.0529C12.9187 32.3154 13.0875 32.5967 13.2187 32.9014C13.1578 32.7514 13.0922 32.6014 13.0312 32.4514C13.1625 32.7654 13.2516 33.0889 13.2984 33.4217C13.275 33.2576 13.2516 33.0889 13.2328 32.9248C13.2609 33.0982 13.2703 33.2717 13.2703 33.4451C13.275 33.9279 13.4766 34.4295 13.8187 34.7717C14.1422 35.0951 14.6766 35.3436 15.1453 35.3201C16.1531 35.2732 17.0297 34.4951 17.0203 33.4451C17.0109 32.3342 16.6922 31.1576 16.0312 30.2529C15.6094 29.6811 15.1969 29.2592 14.6344 28.8326C14.1891 28.4904 13.6875 28.2654 13.1625 28.0732C12.6328 27.8764 12.0422 27.792 11.475 27.7732C10.9172 27.7545 10.3312 27.8295 9.79219 27.9842C8.75625 28.2795 7.74844 28.8936 7.05938 29.7279C6.6 30.2857 6.29531 30.8107 6.02344 31.4811C5.8125 32.0061 5.72813 32.5545 5.67656 33.117C5.58281 34.2186 5.89688 35.4092 6.46406 36.3514C7.01719 37.2701 7.86094 38.0857 8.84063 38.5311C9.525 38.8404 10.1344 39.0092 10.8797 39.0889C11.4375 39.1498 11.9953 39.0889 12.5437 38.9811C13.6922 38.7654 14.8453 38.0764 15.5953 37.1811C16.4859 36.117 16.9969 34.842 17.0109 33.4404C17.0203 32.4607 16.1437 31.5186 15.1359 31.5654C14.1234 31.617 13.2797 32.3951 13.2703 33.4451Z" fill="#393D46"/>
<path d="M39.1922 33.4452C39.1922 33.6186 39.1781 33.7921 39.1547 33.9655C39.1781 33.8015 39.2016 33.6327 39.2203 33.4686C39.1734 33.8061 39.0797 34.1296 38.9531 34.439C39.0141 34.289 39.0797 34.1389 39.1406 33.9889C39.0094 34.2936 38.8406 34.5749 38.6391 34.8374C38.7375 34.7108 38.8359 34.5843 38.9344 34.4577C38.7422 34.7014 38.5266 34.9171 38.2828 35.1093C38.4094 35.0108 38.5359 34.9124 38.6625 34.814C38.4 35.0155 38.1187 35.1843 37.8141 35.3155C37.9641 35.2546 38.1141 35.189 38.2641 35.128C37.95 35.2593 37.6266 35.3483 37.2937 35.3952C37.4578 35.3718 37.6266 35.3483 37.7906 35.3296C37.4437 35.3764 37.0969 35.3764 36.75 35.3296C36.9141 35.353 37.0828 35.3764 37.2469 35.3952C36.9094 35.3483 36.5859 35.2546 36.2766 35.128C36.4266 35.189 36.5766 35.2546 36.7266 35.3155C36.4219 35.1843 36.1406 35.0155 35.8781 34.814C36.0047 34.9124 36.1312 35.0108 36.2578 35.1093C36.0141 34.9171 35.7984 34.7014 35.6062 34.4577C35.7047 34.5843 35.8031 34.7108 35.9016 34.8374C35.7 34.5749 35.5312 34.2936 35.4 33.9889C35.4609 34.1389 35.5266 34.289 35.5875 34.439C35.4562 34.1249 35.3672 33.8015 35.3203 33.4686C35.3437 33.6327 35.3672 33.8015 35.3859 33.9655C35.3391 33.6186 35.3391 33.2718 35.3859 32.9249C35.3625 33.089 35.3391 33.2577 35.3203 33.4218C35.3672 33.0843 35.4609 32.7608 35.5875 32.4515C35.5266 32.6015 35.4609 32.7515 35.4 32.9015C35.5312 32.5968 35.7 32.3155 35.9016 32.053C35.8031 32.1796 35.7047 32.3061 35.6062 32.4327C35.7984 32.189 36.0141 31.9733 36.2578 31.7811C36.1312 31.8796 36.0047 31.978 35.8781 32.0765C36.1406 31.8749 36.4219 31.7061 36.7266 31.5749C36.5766 31.6358 36.4266 31.7015 36.2766 31.7624C36.5906 31.6311 36.9141 31.5421 37.2469 31.4952C37.0828 31.5186 36.9141 31.5421 36.75 31.5608C37.0969 31.514 37.4437 31.514 37.7906 31.5608C37.6266 31.5374 37.4578 31.514 37.2937 31.4952C37.6312 31.5421 37.9547 31.6358 38.2641 31.7624C38.1141 31.7015 37.9641 31.6358 37.8141 31.5749C38.1187 31.7061 38.4 31.8749 38.6625 32.0765C38.5359 31.978 38.4094 31.8796 38.2828 31.7811C38.5266 31.9733 38.7422 32.189 38.9344 32.4327C38.8359 32.3061 38.7375 32.1796 38.6391 32.053C38.8406 32.3155 39.0094 32.5968 39.1406 32.9015C39.0797 32.7515 39.0141 32.6015 38.9531 32.4515C39.0844 32.7655 39.1734 33.089 39.2203 33.4218C39.1969 33.2577 39.1734 33.089 39.1547 32.9249C39.1781 33.0983 39.1922 33.2718 39.1922 33.4452C39.1969 33.928 39.3984 34.4296 39.7406 34.7718C40.064 35.0952 40.5984 35.3436 41.0672 35.3202C42.075 35.2733 42.9515 34.4952 42.9422 33.4452C42.9328 32.3343 42.614 31.1577 41.9531 30.253C41.5312 29.6811 41.1187 29.2593 40.5562 28.8327C40.1109 28.4905 39.6094 28.2655 39.0844 28.0733C38.5547 27.8765 37.9641 27.7921 37.3969 27.7733C36.8391 27.7546 36.2531 27.8296 35.7141 27.9843C34.6781 28.2796 33.6703 28.8936 32.9812 29.728C32.5219 30.2858 32.2172 30.8108 31.9453 31.4811C31.7344 32.0061 31.65 32.5546 31.5984 33.1171C31.5047 34.2186 31.8188 35.4093 32.3859 36.3514C32.9391 37.2702 33.7828 38.0858 34.7625 38.5311C35.4469 38.8405 36.0562 39.0093 36.8016 39.0889C37.3594 39.1499 37.9172 39.0889 38.4656 38.9811C39.614 38.7655 40.7672 38.0764 41.5172 37.1811C42.4078 36.1171 42.9187 34.8421 42.9328 33.4405C42.9422 32.4608 42.0656 31.5186 41.0578 31.5655C40.0453 31.6171 39.2015 32.3952 39.1922 33.4452Z" fill="#393D46"/>
</svg>
