<svg width="69" height="49" viewBox="0 0 69 49" fill="none" xmlns="http://www.w3.org/2000/svg">
<path d="M64.9412 4.18295H43.8724C43.1461 4.18386 42.4336 4.38079 41.81 4.75298C41.1863 5.12516 40.6747 5.65878 40.3291 6.29754C40.0533 5.09872 39.5087 3.97825 38.7363 3.0208C37.964 2.06336 36.9841 1.29397 35.8708 0.770779C34.7574 0.247586 33.5398 -0.0157311 32.3097 0.000726596C31.0797 0.0171843 29.8695 0.312984 28.7706 0.865777C27.6716 1.41857 26.7127 2.2139 25.9662 3.19166C25.2198 4.16943 24.7053 5.30407 24.4617 6.50984C24.218 7.71562 24.2517 8.961 24.56 10.1519C24.8683 11.3428 25.4432 12.448 26.2413 13.3841C25.7543 13.4855 22.9334 14.1349 21.8335 14.3906C21.3223 14.5308 20.8863 14.8655 20.6186 15.323C20.3509 15.7805 20.2729 16.3247 20.4012 16.839C20.5295 17.3533 20.854 17.797 21.3052 18.0752C21.7564 18.3534 22.2986 18.444 22.8157 18.3276C26.3484 17.3136 29.9831 16.6969 33.6525 16.489C30.6201 19.0361 26.7841 20.4278 22.8239 20.4178C17.5921 20.421 12.5113 22.1715 8.38771 25.3914C4.26415 28.6112 1.33409 33.1161 0.0625547 38.191C-0.0470307 38.6334 0.0260268 40.4111 0.00167446 42.7408C0.00167446 43.5403 0.159147 44.332 0.465102 45.0706C0.771056 45.8092 1.2195 46.4804 1.78483 47.0457C2.35016 47.6111 3.02131 48.0595 3.75995 48.3655C4.49859 48.6714 5.29026 48.8289 6.08976 48.8289H40.9379C42.5505 48.8237 44.0961 48.1836 45.2402 47.0471L46.677 45.6103L48.1138 47.0471C49.2578 48.1836 50.8034 48.8237 52.416 48.8289H62.9119C64.5265 48.8289 66.075 48.1875 67.2168 47.0457C68.3585 45.904 68.9999 44.3555 68.9999 42.7408V8.24167C68.9999 7.16523 68.5723 6.13288 67.8112 5.37172C67.05 4.61056 66.0177 4.18295 64.9412 4.18295ZM32.4714 12.3004C31.6687 12.3004 30.884 12.0623 30.2165 11.6164C29.5491 11.1704 29.0289 10.5365 28.7217 9.79488C28.4145 9.05324 28.3341 8.23717 28.4907 7.44985C28.6473 6.66254 29.0339 5.93934 29.6015 5.37172C30.1691 4.8041 30.8923 4.41754 31.6796 4.26093C32.4669 4.10433 33.283 4.1847 34.0247 4.4919C34.7663 4.79909 35.4002 5.31931 35.8462 5.98676C36.2921 6.65422 36.5302 7.43893 36.5302 8.24167V12.3004H32.4714ZM22.8239 24.4766C24.8538 24.4734 26.8727 24.1781 28.8186 23.5999C29.5121 24.4131 30.252 25.1856 31.0347 25.9133C31.4157 26.2944 31.9325 26.5085 32.4714 26.5085C33.0103 26.5085 33.5272 26.2944 33.9082 25.9133C34.2893 25.5323 34.5034 25.0155 34.5034 24.4766C34.5034 23.9377 34.2893 23.4208 33.9082 23.0398L32.788 21.9196C33.2954 21.6436 33.8027 21.3635 34.2857 21.0429L37.1268 23.884C37.5079 24.265 38.0247 24.4791 38.5636 24.4791C39.1025 24.4791 39.6193 24.265 40.0004 23.884C40.3814 23.5029 40.5955 22.9861 40.5955 22.4472C40.5955 21.9083 40.3814 21.3915 40.0004 21.0104L37.4556 18.4696C37.8614 18.0638 38.2673 17.6579 38.6164 17.252L41.1855 19.8253C41.3742 20.0139 41.5982 20.1636 41.8447 20.2657C42.0913 20.3678 42.3555 20.4204 42.6223 20.4204C42.8891 20.4204 43.1534 20.3678 43.3999 20.2657C43.6464 20.1636 43.8704 20.0139 44.0591 19.8253C44.2478 19.6366 44.3974 19.4126 44.4996 19.1661C44.6017 18.9195 44.6542 18.6553 44.6542 18.3885C44.6542 18.1216 44.6017 17.8574 44.4996 17.6109C44.3974 17.3644 44.2478 17.1404 44.0591 16.9517L40.9745 13.8711C42.3017 11.5292 42.5046 10.9164 43.8765 8.24167H64.9412V36.6527H4.81532C6.25484 33.0547 8.74038 29.9712 11.9507 27.8006C15.161 25.63 18.9486 24.4721 22.8239 24.4766ZM62.9119 44.7702H52.416C51.1334 44.7702 50.6748 43.719 49.5465 42.7408C48.7729 42.0038 47.7454 41.5928 46.677 41.5928C45.6085 41.5928 44.5811 42.0038 43.8075 42.7408C42.6751 43.723 42.2164 44.7702 40.9379 44.7702H6.08976C5.55154 44.7702 5.03536 44.5564 4.65478 44.1758C4.2742 43.7952 4.0604 43.279 4.0604 42.7408V40.7114H64.9412V42.7408C64.9412 43.279 64.7274 43.7952 64.3468 44.1758C63.9663 44.5564 63.4501 44.7702 62.9119 44.7702Z" fill="white"/>
</svg>
