<svg width="48" height="48" viewBox="0 0 48 48" fill="none" xmlns="http://www.w3.org/2000/svg">
<path d="M31 7H16.88C16.3703 6.99902 15.8796 7.19263 15.5079 7.54129C15.1362 7.88995 14.9116 8.36735 14.88 8.876L13.004 38.876C12.9867 39.1491 13.0257 39.4227 13.1185 39.6801C13.2112 39.9375 13.3558 40.1731 13.5433 40.3724C13.7307 40.5717 13.9571 40.7304 14.2083 40.8387C14.4596 40.947 14.7304 41.0025 15.004 41.002H19.094C19.5674 41.0018 20.0254 40.8336 20.3865 40.5275C20.7476 40.2213 20.9883 39.797 21.066 39.33L23.94 22.084L26.814 39.33C26.892 39.7966 27.133 40.2205 27.494 40.5262C27.8551 40.832 28.3128 40.9999 28.786 41H32.876C33.1494 41.0005 33.42 40.945 33.6711 40.8368C33.9222 40.7286 34.1485 40.5701 34.3359 40.3711C34.5233 40.172 34.668 39.9367 34.7609 39.6795C34.8537 39.4224 34.8929 39.1489 34.876 38.876L33 8.876C32.9684 8.36735 32.7438 7.88995 32.3721 7.54129C32.0004 7.19263 31.5096 6.99902 31 7ZM31 9L31.22 12.522C30.5397 12.2187 29.9622 11.7245 29.5574 11.0993C29.1527 10.4741 28.9382 9.74479 28.94 9H31ZM18.94 9C18.9415 9.74473 18.7269 10.4739 18.3222 11.0991C17.9175 11.7242 17.3401 12.2185 16.66 12.522L16.88 9H18.94ZM28.786 39L24.926 15.836C24.8866 15.603 24.7659 15.3915 24.5854 15.239C24.4049 15.0864 24.1763 15.0027 23.94 15.0027C23.7037 15.0027 23.475 15.0864 23.2945 15.239C23.114 15.3915 22.9934 15.603 22.954 15.836L19.094 39H15.004L16.516 14.83C17.7569 14.4204 18.8443 13.6437 19.6342 12.6027C20.4242 11.5617 20.8795 10.3054 20.94 9H22.94V12C22.94 12.2652 23.0453 12.5196 23.2329 12.7071C23.4204 12.8946 23.6748 13 23.94 13C24.2052 13 24.4595 12.8946 24.6471 12.7071C24.8346 12.5196 24.94 12.2652 24.94 12V9H26.94C27.0005 10.3054 27.4558 11.5617 28.2457 12.6027C29.0357 13.6437 30.123 14.4204 31.364 14.83L32.876 39H28.786Z" fill="#CDCFD1"/>
</svg>
