<svg width="48" height="48" viewBox="0 0 48 48" fill="none" xmlns="http://www.w3.org/2000/svg">
<path d="M17.0856 39H31.0856C31.616 39 32.1247 38.7893 32.4998 38.4142C32.8749 38.0391 33.0856 37.5304 33.0856 37V20.414L34.6716 22C35.0523 22.3641 35.5588 22.5673 36.0856 22.5673C36.6124 22.5673 37.1188 22.3641 37.4996 22L40.0856 19.414C40.4605 19.039 40.6711 18.5303 40.6711 18C40.6711 17.4697 40.4605 16.9611 40.0856 16.586L33.3776 9.87801C33.0998 9.59883 32.7694 9.37748 32.4055 9.22678C32.0416 9.07607 31.6514 8.999 31.2576 9.00001H16.9136C16.5197 8.999 16.1296 9.07607 15.7657 9.22678C15.4018 9.37748 15.0714 9.59883 14.7936 9.87801L8.08557 16.586C7.71063 16.9611 7.5 17.4697 7.5 18C7.5 18.5303 7.71063 19.039 8.08557 19.414L10.6716 22C11.0523 22.3641 11.5588 22.5673 12.0856 22.5673C12.6124 22.5673 13.1188 22.3641 13.4996 22L15.0856 20.414V37C15.0856 37.5304 15.2963 38.0391 15.6714 38.4142C16.0464 38.7893 16.5551 39 17.0856 39ZM26.9016 11C26.6979 11.5846 26.3174 12.0912 25.8128 12.4498C25.3082 12.8083 24.7046 13.001 24.0856 13.001C23.4666 13.001 22.8629 12.8083 22.3583 12.4498C21.8537 12.0912 21.4732 11.5846 21.2696 11H26.9016ZM12.0856 20.586L9.49957 18L16.2076 11.292C16.395 11.1051 16.6489 11.0001 16.9136 11H19.1876C19.4171 12.1303 20.0303 13.1465 20.9233 13.8764C21.8163 14.6063 22.9342 15.005 24.0876 15.005C25.2409 15.005 26.3588 14.6063 27.2518 13.8764C28.1448 13.1465 28.7581 12.1303 28.9876 11H31.2616C31.5263 11.0001 31.7802 11.1051 31.9676 11.292L38.6716 18L36.0856 20.586L32.7936 17.292C32.6537 17.1518 32.4754 17.0563 32.2812 17.0175C32.0869 16.9788 31.8856 16.9986 31.7026 17.0744C31.5197 17.1503 31.3634 17.2787 31.2535 17.4435C31.1437 17.6083 31.0852 17.802 31.0856 18V37H17.0856V18C17.0859 17.802 17.0275 17.6083 16.9176 17.4435C16.8078 17.2787 16.6514 17.1503 16.4685 17.0744C16.2856 16.9986 16.0842 16.9788 15.89 17.0175C15.6958 17.0563 15.5174 17.1518 15.3776 17.292L12.0856 20.586Z" fill="#CDCFD1"/>
</svg>
