<svg width="48" height="48" viewBox="0 0 48 48" fill="none" xmlns="http://www.w3.org/2000/svg">
<path d="M37.4742 14.69C37.3122 14.285 37.0638 13.9203 36.7463 13.6212C36.4289 13.322 36.0501 13.0957 35.6362 12.958L30.9102 11.382L29.6482 8.858C29.4002 8.35862 29.0174 7.93863 28.543 7.64561C28.0687 7.35258 27.5218 7.19822 26.9642 7.2H21.4362C20.8786 7.19822 20.3317 7.35258 19.8574 7.64561C19.383 7.93863 19.0002 8.35862 18.7522 8.858L17.4902 11.382L12.7642 12.958C12.3503 13.0957 11.9715 13.322 11.6541 13.6212C11.3366 13.9203 11.0882 14.285 10.9262 14.69L7.5582 23.112C7.3206 23.7026 7.19905 24.3334 7.2002 24.97V37.2C7.2002 37.7304 7.41092 38.2391 7.78599 38.6142C8.16106 38.9893 8.66977 39.2 9.2002 39.2H11.2002C11.7306 39.2 12.2393 38.9893 12.6144 38.6142C12.9895 38.2391 13.2002 37.7304 13.2002 37.2V34.348L14.2002 31.012V33.256C14.2592 34.3835 14.6033 35.4776 15.2002 36.436V39.2C15.2002 39.7304 15.4109 40.2391 15.786 40.6142C16.1611 40.9893 16.6698 41.2 17.2002 41.2H31.2002C31.7306 41.2 32.2393 40.9893 32.6144 40.6142C32.9895 40.2391 33.2002 39.7304 33.2002 39.2V36.436C33.7972 35.4777 34.1413 34.3835 34.2002 33.256V31.012L35.2002 34.348V37.2C35.2002 37.7304 35.4109 38.2391 35.786 38.6142C36.1611 38.9893 36.6698 39.2 37.2002 39.2H39.2002C39.7306 39.2 40.2393 38.9893 40.6144 38.6142C40.9895 38.2391 41.2002 37.7304 41.2002 37.2V24.97C41.2015 24.334 41.08 23.7038 40.8422 23.114L37.4742 14.69ZM35.1782 14.96C34.1116 16.5639 33.1347 18.2258 32.2522 19.938C32.1462 20.338 32.2362 19.874 32.2002 31.2C31.4046 31.2 30.6415 30.8839 30.0789 30.3213C29.5163 29.7587 29.2002 28.9956 29.2002 28.2C29.2002 27.9348 29.0948 27.6804 28.9073 27.4929C28.7198 27.3053 28.4654 27.2 28.2002 27.2C27.935 27.2 27.6806 27.3053 27.4931 27.4929C27.3056 27.6804 27.2002 27.9348 27.2002 28.2C27.2002 29.5261 27.727 30.7978 28.6647 31.7355C29.6024 32.6732 30.8741 33.2 32.2002 33.2V33.256C32.1586 33.9452 31.9463 34.6133 31.5822 35.2H25.2002V16.736L30.3482 13.304C36.0602 15.246 34.7802 14.728 35.1782 14.96ZM20.0002 10.852L21.2382 13.018L19.4982 11.858L20.0002 10.852ZM28.4162 10.852L28.9182 11.852L27.1782 13.012L28.4162 10.852ZM27.0442 9.22L24.2002 14.184L21.3642 9.22C21.7702 9.2 26.6282 9.2 27.0362 9.22H27.0442ZM18.0522 13.304L23.2002 16.736V35.2H16.8182C16.4511 34.6147 16.2385 33.9458 16.2002 33.256V33.2C17.5263 33.2 18.7981 32.6732 19.7357 31.7355C20.6734 30.7978 21.2002 29.5261 21.2002 28.2C21.2002 27.9348 21.0948 27.6804 20.9073 27.4929C20.7198 27.3053 20.4654 27.2 20.2002 27.2C19.935 27.2 19.6806 27.3053 19.4931 27.4929C19.3056 27.6804 19.2002 27.9348 19.2002 28.2C19.2002 28.9956 18.8841 29.7587 18.3215 30.3213C17.7589 30.8839 16.9959 31.2 16.2002 31.2C16.1642 19.876 16.2542 20.328 16.1482 19.938C15.2663 18.2255 14.2895 16.5636 13.2222 14.96C13.5282 14.78 16.0122 14 18.0522 13.304ZM9.2002 37.2V35.2H11.2002V37.2H9.2002ZM14.0742 24.476L11.4562 33.2H9.2002V24.97C9.20004 24.5884 9.27268 24.2103 9.4142 23.856L12.1402 17.044L14.2002 20.476V23.614C14.2004 23.9059 14.1579 24.1963 14.0742 24.476ZM17.2002 39.2V37.2H31.2002V39.2H17.2002ZM34.2002 23.614V20.476L36.2602 17.044L38.9862 23.858C39.1281 24.2115 39.2008 24.589 39.2002 24.97V33.2H36.9442L34.3262 24.474C34.2423 24.195 34.1999 23.9053 34.2002 23.614ZM37.2002 37.2V35.2H39.2002V37.2H37.2002Z" fill="#CDCFD1"/>
</svg>
