<svg width="24" height="24" viewBox="0 0 24 24" fill="none" xmlns="http://www.w3.org/2000/svg">
<path d="M19.4406 12.9998C19.2206 12.9998 18.9906 12.9298 18.7706 12.8798C18.3251 12.7816 17.8873 12.6513 17.4606 12.4898C16.9967 12.321 16.4867 12.3298 16.0289 12.5144C15.5711 12.699 15.1977 13.0464 14.9806 13.4898L14.7606 13.9398C13.7866 13.398 12.8916 12.725 12.1006 11.9398C11.3154 11.1488 10.6424 10.2538 10.1006 9.27981L10.5206 8.99981C10.964 8.78272 11.3114 8.40934 11.496 7.9515C11.6806 7.49366 11.6894 6.98372 11.5206 6.51981C11.3618 6.09223 11.2315 5.65461 11.1306 5.20981C11.0806 4.98981 11.0406 4.75981 11.0106 4.52981C10.8892 3.82543 10.5202 3.18755 9.97021 2.73105C9.42021 2.27454 8.72529 2.02942 8.01059 2.03981H5.01059C4.57962 2.03576 4.15284 2.12462 3.7593 2.30034C3.36576 2.47605 3.0147 2.7345 2.73002 3.05809C2.44534 3.38168 2.23372 3.7628 2.10958 4.17552C1.98543 4.58824 1.95167 5.02287 2.01059 5.44981C2.54333 9.63919 4.45662 13.5317 7.44824 16.5124C10.4399 19.4932 14.3393 21.3923 18.5306 21.9098H18.9106C19.648 21.9109 20.36 21.6403 20.9106 21.1498C21.227 20.8669 21.4797 20.52 21.6521 20.1321C21.8244 19.7443 21.9126 19.3242 21.9106 18.8998V15.8998C21.8983 15.2052 21.6454 14.5364 21.1949 14.0075C20.7445 13.4786 20.1244 13.1224 19.4406 12.9998ZM19.9406 18.9998C19.9404 19.1418 19.91 19.2821 19.8514 19.4114C19.7927 19.5407 19.7073 19.6561 19.6006 19.7498C19.4889 19.8463 19.3582 19.9184 19.217 19.9614C19.0758 20.0045 18.9271 20.0175 18.7806 19.9998C15.0355 19.5196 11.5568 17.8063 8.89331 15.1301C6.22979 12.4539 4.533 8.96714 4.07059 5.21981C4.05467 5.07333 4.06862 4.92514 4.11159 4.7842C4.15456 4.64326 4.22566 4.51249 4.32059 4.39981C4.4143 4.29314 4.52965 4.20765 4.65897 4.14902C4.78829 4.0904 4.9286 4.05999 5.07059 4.05981H8.07059C8.30314 4.05463 8.53021 4.13069 8.71273 4.27488C8.89525 4.41907 9.0218 4.62238 9.07059 4.84981C9.11059 5.12314 9.16059 5.39314 9.22059 5.65981C9.33611 6.18695 9.48985 6.70499 9.68059 7.20981L8.28059 7.85981C8.16089 7.91473 8.05321 7.99275 7.96375 8.0894C7.87428 8.18605 7.80479 8.29942 7.75926 8.423C7.71373 8.54658 7.69306 8.67794 7.69844 8.80953C7.70381 8.94112 7.73513 9.07035 7.79059 9.18981C9.22979 12.2726 11.7078 14.7506 14.7906 16.1898C15.0341 16.2898 15.3071 16.2898 15.5506 16.1898C15.6753 16.1452 15.7899 16.0763 15.8878 15.987C15.9856 15.8977 16.0648 15.7899 16.1206 15.6698L16.7406 14.2698C17.2576 14.4547 17.7852 14.6083 18.3206 14.7298C18.5873 14.7898 18.8573 14.8398 19.1306 14.8798C19.358 14.9286 19.5613 15.0551 19.7055 15.2377C19.8497 15.4202 19.9258 15.6473 19.9206 15.8798L19.9406 18.9998Z" fill="white"/>
</svg>
