<svg width="120" height="24" viewBox="0 0 120 24" fill="none" xmlns="http://www.w3.org/2000/svg">
<path d="M17.34 5.46C17.1027 5.46 16.8707 5.53038 16.6733 5.66224C16.476 5.79409 16.3222 5.98151 16.2313 6.20078C16.1405 6.42005 16.1168 6.66133 16.1631 6.89411C16.2094 7.12689 16.3236 7.34071 16.4915 7.50853C16.6593 7.67635 16.8731 7.79064 17.1059 7.83694C17.3387 7.88324 17.5799 7.85948 17.7992 7.76866C18.0185 7.67783 18.2059 7.52402 18.3378 7.32668C18.4696 7.12935 18.54 6.89734 18.54 6.66C18.54 6.34174 18.4136 6.03652 18.1885 5.81147C17.9635 5.58643 17.6583 5.46 17.34 5.46ZM21.94 7.88C21.9206 7.0503 21.7652 6.2294 21.48 5.45C21.2257 4.78313 20.83 4.17928 20.32 3.68C19.8248 3.16743 19.2196 2.77418 18.55 2.53C17.7727 2.23616 16.9508 2.07721 16.12 2.06C15.06 2 14.72 2 12 2C9.28 2 8.94 2 7.88 2.06C7.04915 2.07721 6.22734 2.23616 5.45 2.53C4.78168 2.77665 4.17693 3.16956 3.68 3.68C3.16743 4.17518 2.77418 4.78044 2.53 5.45C2.23616 6.22734 2.07721 7.04915 2.06 7.88C2 8.94 2 9.28 2 12C2 14.72 2 15.06 2.06 16.12C2.07721 16.9508 2.23616 17.7727 2.53 18.55C2.77418 19.2196 3.16743 19.8248 3.68 20.32C4.17693 20.8304 4.78168 21.2234 5.45 21.47C6.22734 21.7638 7.04915 21.9228 7.88 21.94C8.94 22 9.28 22 12 22C14.72 22 15.06 22 16.12 21.94C16.9508 21.9228 17.7727 21.7638 18.55 21.47C19.2196 21.2258 19.8248 20.8326 20.32 20.32C20.8322 19.8226 21.2283 19.2182 21.48 18.55C21.7652 17.7706 21.9206 16.9497 21.94 16.12C21.94 15.06 22 14.72 22 12C22 9.28 22 8.94 21.94 7.88ZM20.14 16C20.1327 16.6348 20.0178 17.2637 19.8 17.86C19.6403 18.2952 19.3839 18.6884 19.05 19.01C18.7256 19.3405 18.3332 19.5964 17.9 19.76C17.3037 19.9778 16.6748 20.0927 16.04 20.1C15.04 20.15 14.67 20.16 12.04 20.16C9.41 20.16 9.04 20.16 8.04 20.1C7.38089 20.1123 6.72459 20.0109 6.1 19.8C5.68578 19.6281 5.31136 19.3728 5 19.05C4.66809 18.7287 4.41484 18.3352 4.26 17.9C4.01586 17.2952 3.88044 16.6519 3.86 16C3.86 15 3.8 14.63 3.8 12C3.8 9.37 3.8 9 3.86 8C3.86448 7.35106 3.98295 6.70795 4.21 6.1C4.38605 5.67791 4.65627 5.30166 5 5C5.30381 4.65617 5.67929 4.3831 6.1 4.2C6.70955 3.98004 7.352 3.86508 8 3.86C9 3.86 9.37 3.8 12 3.8C14.63 3.8 15 3.8 16 3.86C16.6348 3.86728 17.2637 3.98225 17.86 4.2C18.3144 4.36865 18.7223 4.64285 19.05 5C19.3777 5.30718 19.6338 5.68273 19.8 6.1C20.0223 6.70893 20.1373 7.35178 20.14 8C20.19 9 20.2 9.37 20.2 12C20.2 14.63 20.19 15 20.14 16ZM12 6.87C10.9858 6.87198 9.99496 7.17453 9.15265 7.73942C8.31035 8.30431 7.65438 9.1062 7.26763 10.0438C6.88089 10.9813 6.78072 12.0125 6.97979 13.0069C7.17886 14.0014 7.66824 14.9145 8.38608 15.631C9.10392 16.3474 10.018 16.835 11.0129 17.0321C12.0077 17.2293 13.0387 17.1271 13.9755 16.7385C14.9123 16.35 15.7129 15.6924 16.2761 14.849C16.8394 14.0056 17.14 13.0142 17.14 12C17.1413 11.3251 17.0092 10.6566 16.7512 10.033C16.4933 9.40931 16.1146 8.84281 15.6369 8.36605C15.1592 7.88929 14.5919 7.51168 13.9678 7.25493C13.3436 6.99818 12.6749 6.86736 12 6.87ZM12 15.33C11.3414 15.33 10.6976 15.1347 10.15 14.7688C9.60234 14.4029 9.17552 13.8828 8.92348 13.2743C8.67144 12.6659 8.6055 11.9963 8.73398 11.3503C8.86247 10.7044 9.17963 10.111 9.64533 9.64533C10.111 9.17963 10.7044 8.86247 11.3503 8.73398C11.9963 8.6055 12.6659 8.67144 13.2743 8.92348C13.8828 9.17552 14.4029 9.60234 14.7688 10.15C15.1347 10.6976 15.33 11.3414 15.33 12C15.33 12.4373 15.2439 12.8703 15.0765 13.2743C14.9092 13.6784 14.6639 14.0454 14.3547 14.3547C14.0454 14.6639 13.6784 14.9092 13.2743 15.0765C12.8703 15.2439 12.4373 15.33 12 15.33Z" fill="white"/>
<g clip-path="url(#clip0_199_611)">
<path d="M56.51 20H56.43C54.8183 19.9859 53.23 19.6136 51.78 18.91C51.5132 18.7847 51.2936 18.5773 51.1533 18.3182C51.0129 18.0591 50.9592 17.7619 51 17.47C51.0443 17.1762 51.1804 16.9039 51.3887 16.692C51.597 16.4801 51.8669 16.3394 52.16 16.29C53.0586 16.1701 53.9231 15.8672 54.7 15.4C53.3511 14.3454 52.3127 12.9456 51.6948 11.3488C51.0769 9.75206 50.9024 8.01786 51.19 6.33002C51.229 6.06267 51.3439 5.81216 51.5212 5.60828C51.6985 5.4044 51.9306 5.25575 52.19 5.18002C52.4423 5.10078 52.7123 5.09739 52.9665 5.17028C53.2208 5.24317 53.448 5.38912 53.62 5.59002C54.204 6.3558 54.9379 6.99458 55.7769 7.46739C56.6159 7.94019 57.5424 8.2371 58.5 8.34002C58.5457 7.16187 59.052 6.04874 59.91 5.24002C60.3384 4.82979 60.8441 4.50893 61.3978 4.29613C61.9514 4.08333 62.5419 3.98284 63.1348 4.00052C63.7276 4.01821 64.3111 4.15371 64.8511 4.39913C65.391 4.64455 65.8768 4.99499 66.28 5.43002C66.385 5.52289 66.5155 5.58207 66.6546 5.5999C66.7937 5.61773 66.9349 5.59339 67.06 5.53002C67.2984 5.41757 67.5639 5.37524 67.8255 5.40796C68.0871 5.44069 68.3339 5.54713 68.5373 5.71487C68.7407 5.8826 68.8922 6.10471 68.9741 6.35528C69.056 6.60585 69.065 6.87454 69 7.13002C68.7693 8.08014 68.3323 8.96781 67.72 9.73002C67.585 12.5748 66.3308 15.2508 64.2309 17.1746C62.131 19.0985 59.3556 20.1141 56.51 20ZM56.51 18H56.59C57.7526 18.04 58.9117 17.8488 59.9999 17.4375C61.0881 17.0262 62.0839 16.4029 62.9294 15.6039C63.7749 14.8049 64.4535 13.8459 64.9256 12.7827C65.3978 11.7195 65.6542 10.5731 65.68 9.41002C65.6965 9.09127 65.8279 8.7893 66.05 8.56002C66.2939 8.25127 66.5019 7.91578 66.67 7.56002C66.3097 7.56071 65.9534 7.48535 65.6242 7.33888C65.2951 7.19241 65.0006 6.97812 64.76 6.71002C64.5286 6.48057 64.2537 6.2996 63.9515 6.17768C63.6493 6.05577 63.3258 5.99537 63 6.00002C62.6709 5.99151 62.3433 6.04808 62.0362 6.16649C61.729 6.2849 61.4482 6.46282 61.21 6.69002C60.8886 6.99502 60.6529 7.37909 60.5265 7.80379C60.4002 8.22849 60.3876 8.67892 60.49 9.11002L60.75 10.25L59.58 10.33C58.3811 10.4278 57.1752 10.2638 56.046 9.84938C54.9167 9.43498 53.8911 8.78007 53.04 7.93002C53.0035 9.24642 53.3328 10.5471 53.9913 11.6876C54.6498 12.828 55.6116 13.7635 56.77 14.39L57.72 14.93L57.09 15.83C56.4087 16.7235 55.4752 17.3923 54.41 17.75C55.0933 17.9213 55.7955 18.0053 56.5 18H56.51Z" fill="white"/>
</g>
<path d="M116.9 2H99.1C98.8083 2 98.5285 2.11589 98.3222 2.32218C98.1159 2.52847 98 2.80826 98 3.1V20.9C98 21.0445 98.0285 21.1875 98.0837 21.321C98.139 21.4544 98.22 21.5757 98.3222 21.6778C98.4243 21.78 98.5456 21.861 98.679 21.9163C98.8125 21.9715 98.9555 22 99.1 22H108.68V14.25H106.08V11.25H108.68V9C108.626 8.47176 108.689 7.93813 108.863 7.43654C109.037 6.93495 109.319 6.47755 109.688 6.09641C110.058 5.71528 110.507 5.41964 111.003 5.23024C111.499 5.04083 112.03 4.96225 112.56 5C113.338 4.99521 114.116 5.03528 114.89 5.12V7.82H113.3C112.04 7.82 111.8 8.42 111.8 9.29V11.22H114.8L114.41 14.22H111.8V22H116.9C117.044 22 117.187 21.9715 117.321 21.9163C117.454 21.861 117.576 21.78 117.678 21.6778C117.78 21.5757 117.861 21.4544 117.916 21.321C117.972 21.1875 118 21.0445 118 20.9V3.1C118 2.95555 117.972 2.81251 117.916 2.67905C117.861 2.54559 117.78 2.42433 117.678 2.32218C117.576 2.22004 117.454 2.13901 117.321 2.08373C117.187 2.02845 117.044 2 116.9 2Z" fill="white"/>
<defs>
<clipPath id="clip0_199_611">
<rect width="24" height="24" fill="white" transform="translate(48)"/>
</clipPath>
</defs>
</svg>
